<?xml version="1.0" encoding="UTF-8"?>
<svg version="1.1" xmlns="http://www.w3.org/2000/svg" width="180" height="180">
<path d="M0 0 C14.75743361 10.55422091 25.69766891 29.15008214 28.71875 46.95703125 C30.85279181 70.04617802 26.34323149 90.45773552 12 109 C0.29432319 122.33146526 -15.61752801 130.975799 -33 134 C-58.35308207 135.54748144 -79.9118926 132.46425134 -99.51171875 115.390625 C-114.20935907 101.26981515 -122.81145453 82.74896384 -123.41723633 62.36450195 C-123.48304244 53.87392773 -122.81506251 46.07210695 -120 38 C-119.64808594 36.93523438 -119.29617187 35.87046875 -118.93359375 34.7734375 C-116.28260868 27.30168419 -112.96378352 20.2391133 -108 14 C-107.34 14 -106.68 14 -106 14 C-105.773125 13.443125 -105.54625 12.88625 -105.3125 12.3125 C-103.61035232 9.3134779 -101.52322238 7.35500755 -99 5 C-98.51789063 4.5359375 -98.03578125 4.071875 -97.5390625 3.59375 C-70.44322842 -21.25511247 -29.22641142 -19.42916841 0 0 Z " fill="#FBFBF9" transform="translate(137,22)"/>
<path d="M0 0 C0.33 0 0.66 0 1 0 C1.50423019 5.29441695 0.18923033 7.81413519 -3 12 C-1.68 11.34 -0.36 10.68 1 10 C0.50168276 13.68754757 -0.10067643 15.60490662 -3 18 C-1.68 17.34 -0.36 16.68 1 16 C0.50168276 19.68754757 -0.10067643 21.60490662 -3 24 C-2.01 23.67 -1.02 23.34 0 23 C-0.6875 25.375 -0.6875 25.375 -2 28 C-4.625 29.3125 -4.625 29.3125 -7 30 C-7 30.66 -7 31.32 -7 32 C-5.35 31.67 -3.7 31.34 -2 31 C-3.58358642 34.16717283 -4.45263699 35.73268318 -7.6875 37.3125 C-8.8321875 37.6528125 -8.8321875 37.6528125 -10 38 C-8.35 38 -6.7 38 -5 38 C-4.8125 40.3125 -4.8125 40.3125 -5 43 C-6.3125 44.5 -6.3125 44.5 -8 46 C-8.474375 46.804375 -8.94875 47.60875 -9.4375 48.4375 C-11.04798126 51.07868926 -12.7525039 52.88871579 -15 55 C-15.61875 55.7425 -16.2375 56.485 -16.875 57.25 C-19.67291791 59.55416769 -21.47402095 59.32054355 -25 59 C-23.68 59.66 -22.36 60.32 -21 61 C-23.625 65.875 -23.625 65.875 -27 67 C-27.66 67.99 -28.32 68.98 -29 70 C-31.625 70.6875 -31.625 70.6875 -34 71 C-34 71.66 -34 72.32 -34 73 C-37.48561881 74.16187294 -40.34398767 74.06647295 -44 74 C-44.66 74 -45.32 74 -46 74 C-45.67 74.66 -45.34 75.32 -45 76 C-46.99954746 76.04254356 -49.00041636 76.04080783 -51 76 C-51.33 75.67 -51.66 75.34 -52 75 C-56.47480899 74.82451729 -60.60833973 75.14309068 -65 76 C-64.21625 76.763125 -63.4325 77.52625 -62.625 78.3125 C-60 81 -60 81 -58 84 C-60.26459277 82.94858193 -62.00727389 81.9934535 -63.875 80.3125 C-65.99159283 78.7390945 -65.99159283 78.7390945 -68.875 79.0625 C-72.4556362 80.13669086 -74.95896095 81.85744976 -78 84 C-78.66 84 -79.32 84 -80 84 C-80 83.34 -80 82.68 -80 82 C-73.25 78 -73.25 78 -71 78 C-71 77.34 -71 76.68 -71 76 C-73.12368444 75.77865824 -75.24904024 75.57329993 -77.375 75.375 C-78.55835937 75.25898438 -79.74171875 75.14296875 -80.9609375 75.0234375 C-82.46527344 75.01183594 -82.46527344 75.01183594 -84 75 C-84.99 75.99 -84.99 75.99 -86 77 C-89.125 77.125 -89.125 77.125 -92 77 C-92 75 -92 75 -90 73 C-90.99 73.495 -90.99 73.495 -92 74 C-93.99960012 74.039992 -96.00047242 74.04346799 -98 74 C-98 73.34 -98 72.68 -98 72 C-95.525 71.505 -95.525 71.505 -93 71 C-93.33 68.03 -93.66 65.06 -94 62 C-92.02 62.33 -90.04 62.66 -88 63 C-91.46766876 59.17483962 -95.45579194 56.54245288 -99.75 53.75 C-100.44738281 53.29109375 -101.14476562 52.8321875 -101.86328125 52.359375 C-103.57274211 51.23534594 -105.28599512 50.11708776 -107 49 C-106.01 48.505 -106.01 48.505 -105 48 C-103.35180664 48.69677734 -103.35180664 48.69677734 -101.41015625 49.8359375 C-100.70826172 50.24070313 -100.00636719 50.64546875 -99.28320312 51.0625 C-98.55037109 51.495625 -97.81753906 51.92875 -97.0625 52.375 C-95.61720371 53.21840898 -94.17063625 54.05964432 -92.72265625 54.8984375 C-92.08078369 55.27661621 -91.43891113 55.65479492 -90.77758789 56.04443359 C-88.85487447 57.14318351 -88.85487447 57.14318351 -86 58 C-90.455 52.555 -90.455 52.555 -95 47 C-91.47400278 47 -91.02707839 47.53480434 -88.5 49.8125 C-87.9121875 50.33457031 -87.324375 50.85664062 -86.71875 51.39453125 C-85.58966454 52.44919972 -84.48413384 53.52977431 -83.40625 54.63671875 C-82.02438991 56.11341873 -82.02438991 56.11341873 -80 57 C-80.32798584 56.40985107 -80.65597168 55.81970215 -80.99389648 55.21166992 C-82.47770945 52.5383866 -83.95764455 49.86297596 -85.4375 47.1875 C-85.95376953 46.25873047 -86.47003906 45.32996094 -87.00195312 44.37304688 C-87.49501953 43.48037109 -87.98808594 42.58769531 -88.49609375 41.66796875 C-88.95169678 40.84578857 -89.4072998 40.0236084 -89.87670898 39.17651367 C-91 37 -91 37 -92 34 C-91.34 34 -90.68 34 -90 34 C-88.28712191 36.51261908 -86.68878774 39.02172654 -85.125 41.625 C-84.25343502 43.05519416 -83.38105048 44.48488922 -82.5078125 45.9140625 C-82.08790039 46.6040332 -81.66798828 47.29400391 -81.23535156 48.00488281 C-79.55613447 50.71685161 -77.79033193 53.36030129 -76 56 C-76.25726693 54.10227809 -76.53143339 52.20684323 -76.8125 50.3125 C-76.96332031 49.25675781 -77.11414063 48.20101562 -77.26953125 47.11328125 C-78.49688748 41.88224962 -81.1209934 38.6114889 -85 35 C-84.67 34.34 -84.34 33.68 -84 33 C-83.48953125 33.433125 -82.9790625 33.86625 -82.453125 34.3125 C-77.0104114 38.48138702 -72.87311359 39.86802843 -66.01171875 39.54296875 C-61.86924663 38.79614174 -58.57872961 37.20120172 -54.9609375 35.09375 C-53 34 -53 34 -51 34 C-51 34.66 -51 35.32 -51 36 C-52.09466678 36.89270954 -53.22669092 37.73993574 -54.375 38.5625 C-58.09398995 41.62033618 -59.03010321 44.18061924 -59.80859375 48.8515625 C-59.99055148 50.89394516 -60 52.94952797 -60 55 C-59.67725098 54.52054932 -59.35450195 54.04109863 -59.02197266 53.54711914 C-57.56096388 51.38239901 -56.09308807 49.22242457 -54.625 47.0625 C-53.86316406 45.93038086 -53.86316406 45.93038086 -53.0859375 44.77539062 C-52.59609375 44.05673828 -52.10625 43.33808594 -51.6015625 42.59765625 C-51.15119629 41.93258057 -50.70083008 41.26750488 -50.23681641 40.58227539 C-49 39 -49 39 -47 38 C-48.43652105 42.91441412 -50.54159615 47.00238358 -53.125 51.375 C-53.49753906 52.01566406 -53.87007812 52.65632813 -54.25390625 53.31640625 C-55.16434002 54.88048477 -56.08148191 56.44065534 -57 58 C-56.27296875 57.36384766 -56.27296875 57.36384766 -55.53125 56.71484375 C-48.265625 50.35742188 -48.265625 50.35742188 -41 44 C-40.34 44.33 -39.68 44.66 -39 45 C-39.60328125 45.58007812 -40.2065625 46.16015625 -40.828125 46.7578125 C-41.62734375 47.53898437 -42.4265625 48.32015625 -43.25 49.125 C-44.03890625 49.89070313 -44.8278125 50.65640625 -45.640625 51.4453125 C-48.15274689 54.1653915 -50.02661022 56.87697489 -52 60 C-50.39079015 59.03447409 -48.78161633 58.06888809 -47.17260742 57.10302734 C-45.80360935 56.2819876 -44.43397603 55.46200616 -43.0637207 54.64306641 C-39.97578897 52.79592245 -36.89974725 50.93738862 -33.84765625 49.03125 C-32.96980469 48.4846875 -32.09195313 47.938125 -31.1875 47.375 C-30.41792969 46.88773438 -29.64835937 46.40046875 -28.85546875 45.8984375 C-27.93701172 45.45371094 -27.93701172 45.45371094 -27 45 C-26.34 45.33 -25.68 45.66 -25 46 C-24.67 45.67 -24.34 45.34 -24 45 C-22.67479497 44.31731862 -21.34187818 43.6492959 -20 43 C-19.67 43.33 -19.34 43.66 -19 44 C-18.896875 42.80375 -18.79375 41.6075 -18.6875 40.375 C-18.19162056 36.3870118 -16.89160149 33.56494127 -15 30 C-13.91711279 27.02573514 -12.94633253 24.0202102 -12 21 C-10.68 21.66 -9.36 22.32 -8 23 C-8.495 22.608125 -8.99 22.21625 -9.5 21.8125 C-11.45593143 19.44908285 -11.24207973 17.98564997 -11 15 C-9.68 15.66 -8.36 16.32 -7 17 C-7.680625 16.236875 -8.36125 15.47375 -9.0625 14.6875 C-9.701875 13.800625 -10.34125 12.91375 -11 12 C-10.67 11.01 -10.34 10.02 -10 9 C-9.01 9.66 -8.02 10.32 -7 11 C-7.495 10.505 -7.495 10.505 -8 10 C-11 6.28 -11 6.28 -11 4 C-10.01 4.33 -9.02 4.66 -8 5 C-8 5.66 -8 6.32 -8 7 C-6.02 7 -4.04 7 -2 7 C-1.855625 6.401875 -1.71125 5.80375 -1.5625 5.1875 C-1.1127561 3.43849596 -0.57107659 1.71322977 0 0 Z " fill="#F7CC12" transform="translate(159,69)"/>
<path d="M0 0 C-0.22860058 1.46184058 -0.48370392 2.91955419 -0.75 4.375 C-0.88921875 5.18710937 -1.0284375 5.99921875 -1.171875 6.8359375 C-2 9 -2 9 -3.9609375 10.17578125 C-4.63382813 10.44777344 -5.30671875 10.71976563 -6 11 C-7.35573748 12.31054623 -8.68612831 13.64748503 -10 15 C-15.24324324 19.62162162 -15.24324324 19.62162162 -18 21 C-18 21.99 -18 22.98 -18 24 C-18.99 24.66 -19.98 25.32 -21 26 C-20.67 26.66 -20.34 27.32 -20 28 C-22.46223374 33.41691423 -24.26731019 35.78509712 -30 38 C-28.68 38.66 -27.36 39.32 -26 40 C-27.32 41.32 -28.64 42.64 -30 44 C-29.01 44 -28.02 44 -27 44 C-28.29299694 46.88437779 -29.65941363 48.87219421 -32 51 C-30.68 50.34 -29.36 49.68 -28 49 C-29.75 54.75 -29.75 54.75 -32 57 C-30.515 56.505 -30.515 56.505 -29 56 C-29.49831724 59.68754757 -30.10067643 61.60490662 -33 64 C-36.65316671 62.75023244 -37.78065836 62.32901247 -40 59 C-40 58.01 -40 57.02 -40 56 C-38.68 56.33 -37.36 56.66 -36 57 C-36.7425 56.38125 -36.7425 56.38125 -37.5 55.75 C-39 54 -39 54 -39 50 C-38.01 50 -37.02 50 -36 50 C-36.495 49.484375 -36.99 48.96875 -37.5 48.4375 C-39.49649241 45.19319983 -39.21564385 42.73782666 -39 39 C-38.01 39.99 -37.02 40.98 -36 42 C-36.33 41.34 -36.66 40.68 -37 40 C-37.04022391 37.6670134 -37.04320247 35.33293334 -37 33 C-35.68 34.32 -34.36 35.64 -33 37 C-33.66 36.01 -34.32 35.02 -35 34 C-35.80255407 28.26747093 -34.16947705 24.70985019 -31.484375 19.8203125 C-30 18 -30 18 -27.890625 17.1796875 C-27.26671875 17.12039062 -26.6428125 17.06109375 -26 17 C-25.67 17.33 -25.34 17.66 -25 18 C-24.34 15.36 -23.68 12.72 -23 10 C-22.34 10.66 -21.68 11.32 -21 12 C-20.54625 10.906875 -20.0925 9.81375 -19.625 8.6875 C-18.24768615 5.36942571 -16.77190973 2.69720879 -14.0625 0.25 C-9.35533924 -1.67129011 -4.94343773 -0.71857326 0 0 Z " fill="#A0765E" transform="translate(62,23)"/>
<path d="M0 0 C0.33 0 0.66 0 1 0 C1.50423019 5.29441695 0.18923033 7.81413519 -3 12 C-1.68 11.34 -0.36 10.68 1 10 C0.50168276 13.68754757 -0.10067643 15.60490662 -3 18 C-1.68 17.34 -0.36 16.68 1 16 C0.50168276 19.68754757 -0.10067643 21.60490662 -3 24 C-2.01 23.67 -1.02 23.34 0 23 C-0.6875 25.375 -0.6875 25.375 -2 28 C-4.625 29.3125 -4.625 29.3125 -7 30 C-7 30.66 -7 31.32 -7 32 C-5.35 31.67 -3.7 31.34 -2 31 C-3.58358642 34.16717283 -4.45263699 35.73268318 -7.6875 37.3125 C-8.450625 37.539375 -9.21375 37.76625 -10 38 C-8.35 38 -6.7 38 -5 38 C-4.8125 40.3125 -4.8125 40.3125 -5 43 C-6.3125 44.5 -6.3125 44.5 -8 46 C-8.474375 46.804375 -8.94875 47.60875 -9.4375 48.4375 C-11.04798126 51.07868926 -12.7525039 52.88871579 -15 55 C-15.928125 56.11375 -15.928125 56.11375 -16.875 57.25 C-19.67291791 59.55416769 -21.47402095 59.32054355 -25 59 C-23.68 59.66 -22.36 60.32 -21 61 C-21.66 61.66 -22.32 62.32 -23 63 C-26.625 62.625 -26.625 62.625 -30 62 C-30 59.36 -30 56.72 -30 54 C-29.01 54 -28.02 54 -27 54 C-26.34 52.02 -25.68 50.04 -25 48 C-24.34 48 -23.68 48 -23 48 C-22.67 48.99 -22.34 49.98 -22 51 C-21.67 48.36 -21.34 45.72 -21 43 C-20.34 43.33 -19.68 43.66 -19 44 C-18.8453125 42.205625 -18.8453125 42.205625 -18.6875 40.375 C-18.19162056 36.3870118 -16.89160149 33.56494127 -15 30 C-13.91711279 27.02573514 -12.94633253 24.0202102 -12 21 C-10.68 21.66 -9.36 22.32 -8 23 C-8.495 22.608125 -8.99 22.21625 -9.5 21.8125 C-11.45593143 19.44908285 -11.24207973 17.98564997 -11 15 C-9.68 15.66 -8.36 16.32 -7 17 C-7.680625 16.236875 -8.36125 15.47375 -9.0625 14.6875 C-9.701875 13.800625 -10.34125 12.91375 -11 12 C-10.67 11.01 -10.34 10.02 -10 9 C-9.01 9.66 -8.02 10.32 -7 11 C-7.33 10.67 -7.66 10.34 -8 10 C-11 6.28 -11 6.28 -11 4 C-10.01 4.33 -9.02 4.66 -8 5 C-8 5.66 -8 6.32 -8 7 C-6.02 7 -4.04 7 -2 7 C-1.855625 6.401875 -1.71125 5.80375 -1.5625 5.1875 C-1.1127561 3.43849596 -0.57107659 1.71322977 0 0 Z " fill="#A17558" transform="translate(159,69)"/>
<path d="M0 0 C5.28 0 10.56 0 16 0 C16.10852923 2.87602455 16.1875515 5.74790832 16.25 8.625 C16.30027344 9.83736328 16.30027344 9.83736328 16.3515625 11.07421875 C16.44238868 16.66002854 15.7871673 19.79052267 12 24 C11.01 24 10.02 24 9 24 C9 25.65 9 27.3 9 29 C2.53673535 29.45356243 -0.60931587 28.59378942 -6 25 C-5.67 24.34 -5.34 23.68 -5 23 C-5.29259485 20.99363529 -5.62633887 18.99285937 -6 17 C-6 16.34 -6 15.68 -6 15 C-6.31478446 13.66216607 -6.64587656 12.32796291 -7 11 C-4.35261084 9.5393715 -3.10551666 9 0 9 C0 6.03 0 3.06 0 0 Z " fill="#DCE4C5" transform="translate(83,80)"/>
<path d="M0 0 C0.33 0 0.66 0 1 0 C0.54177532 3.46941546 0.10868317 6.67395049 -1 10 C-0.34 10 0.32 10 1 10 C1.33 8.35 1.66 6.7 2 5 C4 7 4 7 4 11 C4.66 10.67 5.32 10.34 6 10 C9.59378942 15.39068413 10.45356243 18.53673535 10 25 C10.66 23.68 11.32 22.36 12 21 C15.58988038 22.94047588 17.68002982 24.67134713 20 28 C20.721875 28.61875 21.44375 29.2375 22.1875 29.875 C24 32 24 32 24.25 35.25 C24.1675 36.1575 24.085 37.065 24 38 C20.78548731 39.60725635 17.56387464 39.05748185 14 39 C13.67 38.34 13.34 37.68 13 37 C14.485 36.505 14.485 36.505 16 36 C14.1128125 35.566875 14.1128125 35.566875 12.1875 35.125 C9.1460601 34.42696461 7.69330122 33.79553415 5 32 C4.25 29.9375 4.25 29.9375 4 28 C4.33 27.67 4.66 27.34 5 27 C4.44570313 26.72027344 3.89140625 26.44054687 3.3203125 26.15234375 C-2.52640303 22.91688373 -2.52640303 22.91688373 -3.9765625 20.109375 C-4.5 18.1875 -4.5 18.1875 -5 15 C-4.34 15 -3.68 15 -3 15 C-3.825 14.38125 -4.65 13.7625 -5.5 13.125 C-6.325 12.42375 -7.15 11.7225 -8 11 C-8 10.34 -8 9.68 -8 9 C-6.35 9 -4.7 9 -3 9 C-4.175625 8.62875 -4.175625 8.62875 -5.375 8.25 C-8.32317108 6.84610901 -8.9024777 5.99324263 -10 3 C-7.36 3.33 -4.72 3.66 -2 4 C-1.34 2.68 -0.68 1.36 0 0 Z " fill="#9F7257" transform="translate(35,97)"/>
<path d="M0 0 C0.77601562 0.09410156 1.55203125 0.18820313 2.3515625 0.28515625 C4.375 0.9375 4.375 0.9375 6.375 3.9375 C6.60205078 6.20581055 6.60205078 6.20581055 6.5703125 8.82421875 C6.56386719 9.76201172 6.55742188 10.69980469 6.55078125 11.66601562 C6.53402344 12.64248047 6.51726562 13.61894531 6.5 14.625 C6.49097656 15.61306641 6.48195313 16.60113281 6.47265625 17.61914062 C6.44908566 20.05869706 6.41321469 22.49812901 6.375 24.9375 C1.425 24.9375 -3.525 24.9375 -8.625 24.9375 C-8.625 22.6275 -8.625 20.3175 -8.625 17.9375 C-10.275 18.2675 -11.925 18.5975 -13.625 18.9375 C-13.625 19.5975 -13.625 20.2575 -13.625 20.9375 C-14.285 20.9375 -14.945 20.9375 -15.625 20.9375 C-14.875 19 -14.875 19 -13.625 16.9375 C-11.546875 16.30859375 -11.546875 16.30859375 -9.625 15.9375 C-9.59921875 15.11765625 -9.5734375 14.2978125 -9.546875 13.453125 C-9.49015625 12.37546875 -9.4334375 11.2978125 -9.375 10.1875 C-9.32859375 9.12015625 -9.2821875 8.0528125 -9.234375 6.953125 C-8.15508166 1.6120067 -5.43714477 -0.79102273 0 0 Z " fill="#F9CE14" transform="translate(91.625,55.0625)"/>
<path d="M0 0 C1.4783226 2.95664519 1.06032783 5.74229737 1 9 C0.01 9.495 0.01 9.495 -1 10 C-1 8.02 -1 6.04 -1 4 C-1.66 4 -2.32 4 -3 4 C-3.33 7.3 -3.66 10.6 -4 14 C-4.99 12.68 -5.98 11.36 -7 10 C-7.33 12.64 -7.66 15.28 -8 18 C-5.36 18 -2.72 18 0 18 C-0.8125 19.9375 -0.8125 19.9375 -2 22 C-2.99 22.33 -3.98 22.66 -5 23 C-5.66 23.99 -6.32 24.98 -7 26 C-9.625 26.6875 -9.625 26.6875 -12 27 C-12 27.66 -12 28.32 -12 29 C-13.65 29.33 -15.3 29.66 -17 30 C-17.33 29.34 -17.66 28.68 -18 28 C-20.02463255 27.34786708 -20.02463255 27.34786708 -22 27 C-21.67 24.36 -21.34 21.72 -21 19 C-22.65 19 -24.3 19 -26 19 C-24.50589836 15.03889333 -22.32041225 13.64614944 -18.75 11.5 C-17.76902344 10.89800781 -16.78804687 10.29601562 -15.77734375 9.67578125 C-14.86082031 9.12277344 -13.94429687 8.56976563 -13 8 C-10.92938745 6.72305678 -8.96711644 5.43546335 -7 4 C-7 3.34 -7 2.68 -7 2 C-3.125 1 -3.125 1 -2 1 C-1.34 0.67 -0.68 0.34 0 0 Z " fill="#FBF9EF" transform="translate(137,113)"/>
<path d="M0 0 C0.66 0 1.32 0 2 0 C3.71287809 2.51261908 5.31121226 5.02172654 6.875 7.625 C7.74656498 9.05519416 8.61894952 10.48488922 9.4921875 11.9140625 C9.91209961 12.6040332 10.33201172 13.29400391 10.76464844 14.00488281 C12.44386553 16.71685161 14.20966807 19.36030129 16 22 C15.34 17.38 14.68 12.76 14 8 C16.64 8.99 19.28 9.98 22 11 C22.58103172 17.53660686 20.80038105 23.09262683 18 29 C17.01 29.495 17.01 29.495 16 30 C15.1028125 28.7934375 15.1028125 28.7934375 14.1875 27.5625 C12.19052724 24.77672016 12.19052724 24.77672016 9 24 C9.66 25.32 10.32 26.64 11 28 C10.01 28 9.02 28 8 28 C8 29.98 8 31.96 8 34 C7.01 33.34 6.02 32.68 5 32 C5 33.65 5 35.3 5 37 C1.75267068 35.37633534 1.29844864 32.24612161 0 29 C1.32 29 2.64 29 4 29 C0.53233124 25.17483962 -3.45579194 22.54245288 -7.75 19.75 C-8.44738281 19.29109375 -9.14476562 18.8321875 -9.86328125 18.359375 C-11.57274211 17.23534594 -13.28599512 16.11708776 -15 15 C-14.34 14.67 -13.68 14.34 -13 14 C-11.35180664 14.69677734 -11.35180664 14.69677734 -9.41015625 15.8359375 C-8.70826172 16.24070312 -8.00636719 16.64546875 -7.28320312 17.0625 C-6.18395508 17.7121875 -6.18395508 17.7121875 -5.0625 18.375 C-3.61720371 19.21840898 -2.17063625 20.05964432 -0.72265625 20.8984375 C-0.08078369 21.27661621 0.56108887 21.65479492 1.22241211 22.04443359 C3.14512553 23.14318351 3.14512553 23.14318351 6 24 C3.03 20.37 0.06 16.74 -3 13 C0.52599722 13 0.97292161 13.53480434 3.5 15.8125 C4.38171875 16.59560547 4.38171875 16.59560547 5.28125 17.39453125 C6.41033546 18.44919972 7.51586616 19.52977431 8.59375 20.63671875 C9.97561009 22.11341873 9.97561009 22.11341873 12 23 C11.67201416 22.40985107 11.34402832 21.81970215 11.00610352 21.21166992 C9.52229055 18.5383866 8.04235545 15.86297596 6.5625 13.1875 C6.04623047 12.25873047 5.52996094 11.32996094 4.99804688 10.37304688 C4.50498047 9.48037109 4.01191406 8.58769531 3.50390625 7.66796875 C3.04830322 6.84578857 2.5927002 6.0236084 2.12329102 5.17651367 C1 3 1 3 0 0 Z " fill="#F5D43F" transform="translate(67,103)"/>
<path d="M0 0 C0.87398438 0.6496875 0.87398438 0.6496875 1.765625 1.3125 C8.47340414 5.86872734 13.93322717 7.47149793 22 6 C24.84388938 4.89065441 27.40325967 3.62916912 30.0390625 2.09375 C32 1 32 1 34 1 C34 3 34 3 32.4609375 4.65625 C31.77257812 5.2646875 31.08421875 5.873125 30.375 6.5 C29.36566406 7.41265625 29.36566406 7.41265625 28.3359375 8.34375 C25.66357977 10.23853207 23.13484488 11.10176364 20 12 C20.25690181 14.06428157 20.53113046 16.12641094 20.8125 18.1875 C20.96332031 19.33605469 21.11414063 20.48460938 21.26953125 21.66796875 C22.00693352 25.03162721 23.14513437 27.13893328 25 30 C25 30.66 25 31.32 25 32 C19.72 32 14.44 32 9 32 C10.00911458 29.49348958 11.01822917 26.98697917 12.02734375 24.48046875 C13.75292057 20.07990136 14.08922893 16.7291332 14 12 C12.989375 11.649375 11.97875 11.29875 10.9375 10.9375 C6.40170587 9.01210168 3.0439257 5.83960233 0 2 C0 1.34 0 0.68 0 0 Z " fill="#316834" transform="translate(74,102)"/>
<path d="M0 0 C4.14941503 0.46104611 6.28468596 0.81245743 9 4 C13.3149843 7.62178285 17.92895716 10.72130181 22.62304688 13.8203125 C24.11664886 14.83084093 25.5631596 15.91027331 27 17 C27 17.66 27 18.32 27 19 C25.35 19 23.7 19 22 19 C22.185625 20.299375 22.37125 21.59875 22.5625 22.9375 C22.87890625 25.15234375 22.87890625 25.15234375 23 27 C22 28 22 28 19.4375 28.0625 C18.633125 28.041875 17.82875 28.02125 17 28 C17 28.66 17 29.32 17 30 C15.68 29.67 14.36 29.34 13 29 C13 28.34 13 27.68 13 27 C10.69 26.34 8.38 25.68 6 25 C6 24.34 6 23.68 6 23 C8.97 22.67 11.94 22.34 15 22 C13.78955868 17.39257135 13.78955868 17.39257135 12 13 C11.67 14.65 11.34 16.3 11 18 C10.67 18 10.34 18 10 18 C9.51171875 15.98177083 9.0234375 13.96354167 8.53515625 11.9453125 C8.05153008 9.9414343 8.05153008 9.9414343 7 8 C6.67 9.98 6.34 11.96 6 14 C5.67 14 5.34 14 5 14 C4.67 11.36 4.34 8.72 4 6 C3.01 7.32 2.02 8.64 1 10 C-0.04005702 6.61981469 -0.08004482 3.5219721 0 0 Z " fill="#F5F1E8" transform="translate(44,113)"/>
<path d="M0 0 C0.33 0 0.66 0 1 0 C1.50423019 5.29441695 0.18923033 7.81413519 -3 12 C-1.68 11.34 -0.36 10.68 1 10 C0.50168276 13.68754757 -0.10067643 15.60490662 -3 18 C-1.68 17.34 -0.36 16.68 1 16 C0.50168276 19.68754757 -0.10067643 21.60490662 -3 24 C-2.01 23.67 -1.02 23.34 0 23 C-0.6875 25.375 -0.6875 25.375 -2 28 C-4.625 29.3125 -4.625 29.3125 -7 30 C-7 30.66 -7 31.32 -7 32 C-5.35 31.67 -3.7 31.34 -2 31 C-3.67517239 34.53647504 -4.49280817 35.7911563 -8.1875 37.3125 C-9.5796875 37.6528125 -9.5796875 37.6528125 -11 38 C-13.32590854 34.36576791 -13.16265833 31.22911669 -13 27 C-11.515 27.99 -11.515 27.99 -10 29 C-10.66 28.01 -11.32 27.02 -12 26 C-12.125 23.3125 -12.125 23.3125 -12 21 C-10.68 21.66 -9.36 22.32 -8 23 C-8.495 22.608125 -8.99 22.21625 -9.5 21.8125 C-11.45593143 19.44908285 -11.24207973 17.98564997 -11 15 C-9.68 15.66 -8.36 16.32 -7 17 C-7.680625 16.236875 -8.36125 15.47375 -9.0625 14.6875 C-9.701875 13.800625 -10.34125 12.91375 -11 12 C-10.67 11.01 -10.34 10.02 -10 9 C-9.01 9.66 -8.02 10.32 -7 11 C-7.33 10.67 -7.66 10.34 -8 10 C-11 6.28 -11 6.28 -11 4 C-10.01 4.33 -9.02 4.66 -8 5 C-8 5.66 -8 6.32 -8 7 C-6.02 7 -4.04 7 -2 7 C-1.855625 6.401875 -1.71125 5.80375 -1.5625 5.1875 C-1.1127561 3.43849596 -0.57107659 1.71322977 0 0 Z " fill="#986749" transform="translate(159,69)"/>
<path d="M0 0 C4.875 4.75 4.875 4.75 6 7 C6.33 5.68 6.66 4.36 7 3 C9.52588702 5.36292656 10.88820837 6.66462511 12 10 C14.58154141 11.07766713 14.58154141 11.07766713 17.6875 11.75 C18.72261719 12.01296875 19.75773437 12.2759375 20.82421875 12.546875 C24.23057202 13.03289834 26.6520684 12.72589844 30 12 C31.48113281 11.73509766 31.48113281 11.73509766 32.9921875 11.46484375 C33.94351563 11.29082031 34.89484375 11.11679688 35.875 10.9375 C36.84179688 10.76089844 37.80859375 10.58429688 38.8046875 10.40234375 C39.89136719 10.20318359 39.89136719 10.20318359 41 10 C41.18369141 9.06414062 41.18369141 9.06414062 41.37109375 8.109375 C42.20092382 5.32609401 43.612225 4.5405 46 3 C46 4.65 46 6.3 46 8 C46.268125 7.21625 46.53625 6.4325 46.8125 5.625 C48 3 48 3 51 1 C50.67 3.64 50.34 6.28 50 9 C52.475 9.495 52.475 9.495 55 10 C55 10.66 55 11.32 55 12 C52.36 11.67 49.72 11.34 47 11 C47.66 11.99 48.32 12.98 49 14 C47.00045254 14.04254356 44.99958364 14.04080783 43 14 C42.505 13.505 42.505 13.505 42 13 C37.52519101 12.82451729 33.39166027 13.14309068 29 14 C29.78375 14.763125 30.5675 15.52625 31.375 16.3125 C34 19 34 19 36 22 C33.73540723 20.94858193 31.99272611 19.9934535 30.125 18.3125 C28.00840717 16.7390945 28.00840717 16.7390945 25.125 17.0625 C21.5443638 18.13669086 19.04103905 19.85744976 16 22 C15.34 22 14.68 22 14 22 C14 21.34 14 20.68 14 20 C20.75 16 20.75 16 23 16 C23 15.34 23 14.68 23 14 C20.87631556 13.77865824 18.75095976 13.57329993 16.625 13.375 C15.44164063 13.25898438 14.25828125 13.14296875 13.0390625 13.0234375 C11.53472656 13.01183594 11.53472656 13.01183594 10 13 C9.34 13.66 8.68 14.32 8 15 C4.875 15.125 4.875 15.125 2 15 C2 13 2 13 4 11 C3.01 11.495 3.01 11.495 2 12 C0.00039988 12.039992 -2.00047242 12.04346799 -4 12 C-4 11.34 -4 10.68 -4 10 C-2.35 9.67 -0.7 9.34 1 9 C0.67 6.03 0.34 3.06 0 0 Z " fill="#A47B58" transform="translate(65,131)"/>
<path d="M0 0 C1.5 1.3125 1.5 1.3125 3 3 C3 3.99 3 4.98 3 6 C6.465 5.505 6.465 5.505 10 5 C9.67 5.99 9.34 6.98 9 8 C6.4375 9.1875 6.4375 9.1875 4 10 C5.32 10.66 6.64 11.32 8 12 C6.68 13.32 5.36 14.64 4 16 C4.99 16 5.98 16 7 16 C5.70700306 18.88437779 4.34058637 20.87219421 2 23 C3.32 22.34 4.64 21.68 6 21 C4.25 26.75 4.25 26.75 2 29 C2.99 28.67 3.98 28.34 5 28 C4.50168276 31.68754757 3.89932357 33.60490662 1 36 C-2.65316671 34.75023244 -3.78065836 34.32901247 -6 31 C-6 30.01 -6 29.02 -6 28 C-4.68 28.33 -3.36 28.66 -2 29 C-2.495 28.5875 -2.99 28.175 -3.5 27.75 C-5 26 -5 26 -5 22 C-4.01 22 -3.02 22 -2 22 C-2.495 21.484375 -2.99 20.96875 -3.5 20.4375 C-5.49649241 17.19319983 -5.21564385 14.73782666 -5 11 C-4.01 11.99 -3.02 12.98 -2 14 C-2.33 13.34 -2.66 12.68 -3 12 C-3.04022391 9.6670134 -3.04320247 7.33293334 -3 5 C-1.68 6.32 -0.36 7.64 1 9 C0.34 8.01 -0.32 7.02 -1 6 C-1.1875 3.375 -1.1875 3.375 -1 1 C-0.67 0.67 -0.34 0.34 0 0 Z " fill="#9C6D51" transform="translate(28,51)"/>
<path d="M0 0 C0.08126087 2.08268593 0.13930839 4.16628658 0.1875 6.25 C0.22230469 7.41015625 0.25710937 8.5703125 0.29296875 9.765625 C-0.02298174 13.25371844 -0.55145823 14.557302 -3 17 C-6.01890228 18.11222716 -7.58251335 18.1165079 -10.6875 17.25 C-13 16 -13 16 -15 13 C-15.1953125 10.51953125 -15.1953125 10.51953125 -15.125 7.8125 C-15.10695313 6.91144531 -15.08890625 6.01039062 -15.0703125 5.08203125 C-15.04710938 4.39496094 -15.02390625 3.70789063 -15 3 C-13.44033782 2.491217 -11.87710759 1.99336531 -10.3125 1.5 C-9.44238281 1.2215625 -8.57226562 0.943125 -7.67578125 0.65625 C-5.00608323 0.00149195 -2.73603316 -0.11831495 0 0 Z " fill="#299BC8" transform="translate(98,87)"/>
<path d="M0 0 C0 3.96 0 7.92 0 12 C-4.95 12 -9.9 12 -15 12 C-15 9.69 -15 7.38 -15 5 C-16.65 5.33 -18.3 5.66 -20 6 C-20 6.66 -20 7.32 -20 8 C-20.66 8 -21.32 8 -22 8 C-21.38671875 6.140625 -21.38671875 6.140625 -20 4 C-13.69760195 1.14408816 -6.9229549 -0.6439958 0 0 Z " fill="#D4C535" transform="translate(98,68)"/>
<path d="M0 0 C0.99 0.66 1.98 1.32 3 2 C3.1875 5.625 3.1875 5.625 3 9 C3.33 7.02 3.66 5.04 4 3 C4.66 3.33 5.32 3.66 6 4 C6 4.66 6 5.32 6 6 C6.64195312 6.23976563 7.28390625 6.47953125 7.9453125 6.7265625 C10 8 10 8 10.6796875 10.0234375 C10.74414062 10.79945312 10.80859375 11.57546875 10.875 12.375 C10.95492187 13.14585938 11.03484375 13.91671875 11.1171875 14.7109375 C10.98566262 17.2800568 10.29480364 18.80184499 9 21 C5.625 20.25 5.625 20.25 2 19 C1.30777777 17.67975358 0.64412539 16.34436777 0 15 C-1.93537223 13.07288056 -1.93537223 13.07288056 -4.125 11.3125 C-5.43195447 10.226472 -6.72814127 9.12692599 -8 8 C-8 7.67 -8 7.34 -8 7 C-6.02 7 -4.04 7 -2 7 C-2 6.34 -2 5.68 -2 5 C-1.34 5 -0.68 5 0 5 C0 3.35 0 1.7 0 0 Z " fill="#9E7053" transform="translate(137,29)"/>
<path d="M0 0 C0.33 0 0.66 0 1 0 C1 3.33333333 1 6.66666667 1 10 C1.99 9.01 2.98 8.02 4 7 C4.07427838 10.34252724 4.06546953 12.8035914 3 16 C3.66 15.67 4.32 15.34 5 15 C5.3125 17.8125 5.3125 17.8125 5 21 C2.5 22.875 2.5 22.875 0 24 C-2.04119788 22.38405168 -4.04072937 20.7143618 -6 19 C-6 18.34 -6 17.68 -6 17 C-4.35 17.33 -2.7 17.66 -1 18 C-1.86625 17.32904297 -1.86625 17.32904297 -2.75 16.64453125 C-3.4925 16.03996094 -4.235 15.43539062 -5 14.8125 C-5.7425 14.22082031 -6.485 13.62914062 -7.25 13.01953125 C-9 11 -9 11 -9.25 8.26171875 C-9.1675 7.51535156 -9.085 6.76898438 -9 6 C-6.36 6.33 -3.72 6.66 -1 7 C-0.67 4.69 -0.34 2.38 0 0 Z " fill="#AF8871" transform="translate(153,50)"/>
<path d="M0 0 C0.33 0.66 0.66 1.32 1 2 C0.21142578 3.70825195 0.21142578 3.70825195 -1.0546875 5.73828125 C-1.72951172 6.84526367 -1.72951172 6.84526367 -2.41796875 7.97460938 C-2.89878906 8.74611328 -3.37960938 9.51761719 -3.875 10.3125 C-8.03452258 16.72002554 -8.03452258 16.72002554 -10 24 C-10.33 25.32 -10.66 26.64 -11 28 C-16.94 28 -22.88 28 -29 28 C-28.67 27.34 -28.34 26.68 -28 26 C-22.72 26.33 -17.44 26.66 -12 27 C-12.639375 25.948125 -13.27875 24.89625 -13.9375 23.8125 C-17.11185573 18.20409765 -17.10719179 13.32431567 -17 7 C-15.02 6.34 -13.04 5.68 -11 5 C-11.33 8.96 -11.66 12.92 -12 17 C-11.21753906 15.85660156 -10.43507813 14.71320313 -9.62890625 13.53515625 C-8.60682654 12.04423264 -7.58468809 10.5533493 -6.5625 9.0625 C-6.04623047 8.30775391 -5.52996094 7.55300781 -4.99804688 6.77539062 C-4.50498047 6.05673828 -4.01191406 5.33808594 -3.50390625 4.59765625 C-3.04830322 3.93258057 -2.5927002 3.26750488 -2.12329102 2.58227539 C-1 1 -1 1 0 0 Z " fill="#DCBF18" transform="translate(111,107)"/>
<path d="M0 0 C1.4783226 2.95664519 1.06032783 5.74229737 1 9 C0.01 9.495 0.01 9.495 -1 10 C-1 8.02 -1 6.04 -1 4 C-1.66 4 -2.32 4 -3 4 C-3.33 7.3 -3.66 10.6 -4 14 C-4.99 12.68 -5.98 11.36 -7 10 C-7.33 12.64 -7.66 15.28 -8 18 C-5.36 18 -2.72 18 0 18 C-0.8125 19.9375 -0.8125 19.9375 -2 22 C-5.50147041 23.1671568 -8.32670036 23.13357453 -12 23 C-12.66 22.67 -13.32 22.34 -14 22 C-14.33588658 17.16180394 -13.52323314 14.46390156 -11.0625 10.3125 C-9.41842033 7.50240638 -8.0310909 5.0932727 -7 2 C-5.28960011 1.41205004 -3.81522119 1 -2 1 C-1.34 0.67 -0.68 0.34 0 0 Z " fill="#E0D4C4" transform="translate(137,113)"/>
<path d="M0 0 C2.35953094 2.35953094 2.49141413 3.77895617 3 7 C4.98 7 6.96 7 9 7 C9 9 9 9 7.75 10.375 C7.1725 10.91125 6.595 11.4475 6 12 C5.401875 12.721875 4.80375 13.44375 4.1875 14.1875 C1.34522901 16.54252454 -0.40795541 16.32654951 -4 16 C-2.68 16.66 -1.36 17.32 0 18 C-0.66 18.66 -1.32 19.32 -2 20 C-5.625 19.625 -5.625 19.625 -9 19 C-9 16.36 -9 13.72 -9 11 C-8.01 11 -7.02 11 -6 11 C-5.34 9.02 -4.68 7.04 -4 5 C-3.34 5 -2.68 5 -2 5 C-1.67 5.99 -1.34 6.98 -1 8 C-0.67 5.36 -0.34 2.72 0 0 Z " fill="#9D6E50" transform="translate(138,112)"/>
<path d="M0 0 C1.66666667 1.66666667 3.33333333 3.33333333 5 5 C5.70125 5.5775 6.4025 6.155 7.125 6.75 C9 9 9 9 9.25 12.25 C9.1675 13.1575 9.085 14.065 9 15 C5.78548731 16.60725635 2.56387464 16.05748185 -1 16 C-1.33 15.34 -1.66 14.68 -2 14 C-1.01 13.67 -0.02 13.34 1 13 C-0.8871875 12.566875 -0.8871875 12.566875 -2.8125 12.125 C-5.8539399 11.42696461 -7.30669878 10.79553415 -10 9 C-10 8.34 -10 7.68 -10 7 C-7.36 7 -4.72 7 -2 7 C-1.22227595 4.66682784 -0.57584432 2.38564077 0 0 Z " fill="#9B684A" transform="translate(50,120)"/>
<path d="M0 0 C1.8125 1.625 1.8125 1.625 3 4 C3.1875 7.75 3.1875 7.75 3 11 C-4.90069513 11.45580933 -4.90069513 11.45580933 -8.5625 9.9375 C-10.7214109 7.02766357 -10.26484554 4.5092034 -10 1 C-6.27077432 -0.81133819 -3.95784271 -1.45815258 0 0 Z " fill="#BA9882" transform="translate(132,23)"/>
<path d="M0 0 C0.66 0 1.32 0 2 0 C2.66 2.64 3.32 5.28 4 8 C6.97 8.495 6.97 8.495 10 9 C9.01 11.31 8.02 13.62 7 16 C1.66561306 16.43724483 1.66561306 16.43724483 -1 16 C-2.9375 13.625 -2.9375 13.625 -4 11 C-4.33 10.34 -4.66 9.68 -5 9 C-4.00390625 6.8359375 -4.00390625 6.8359375 -2.5625 4.375 C-2.08941406 3.55773438 -1.61632812 2.74046875 -1.12890625 1.8984375 C-0.75636719 1.27195313 -0.38382813 0.64546875 0 0 Z " fill="#C9B1A0" transform="translate(32,41)"/>
<path d="M0 0 C4.95 0 9.9 0 15 0 C15 1.65 15 3.3 15 5 C13.25183142 5.50636607 11.50137737 6.00484619 9.75 6.5 C8.77546875 6.7784375 7.8009375 7.056875 6.796875 7.34375 C4 8 4 8 0 8 C0 5.36 0 2.72 0 0 Z " fill="#309AB6" transform="translate(83,80)"/>
<path d="M0 0 C2 2 2 2 2.1953125 3.9453125 C2.13020833 5.96354167 2.06510417 7.98177083 2 10 C2.66 8.68 3.32 7.36 4 6 C4.66 6.33 5.32 6.66 6 7 C5.67 9.64 5.34 12.28 5 15 C2.36 15 -0.28 15 -3 15 C-3 14.01 -3 13.02 -3 12 C-4.96147874 10.61061923 -6.96166576 9.2739589 -9 8 C-9 7.67 -9 7.34 -9 7 C-6.36 6.67 -3.72 6.34 -1 6 C-0.67 4.02 -0.34 2.04 0 0 Z " fill="#966243" transform="translate(43,112)"/>
<path d="M0 0 C0.33 0 0.66 0 1 0 C0.54177532 3.46941546 0.10868317 6.67395049 -1 10 C-0.34 10 0.32 10 1 10 C1.33 8.35 1.66 6.7 2 5 C2.66 5.66 3.32 6.32 4 7 C3.67028521 10.29714793 3.3773161 11.6226839 1 14 C-4.23986486 14.55743243 -4.23986486 14.55743243 -6.875 12.625 C-8 11 -8 11 -8 9 C-6.35 9 -4.7 9 -3 9 C-4.175625 8.62875 -4.175625 8.62875 -5.375 8.25 C-8.32317108 6.84610901 -8.9024777 5.99324263 -10 3 C-7.36 3.33 -4.72 3.66 -2 4 C-1.34 2.68 -0.68 1.36 0 0 Z " fill="#966446" transform="translate(35,97)"/>
<path d="M0 0 C1.485 0.99 1.485 0.99 3 2 C3 2.66 3 3.32 3 4 C4.98 4 6.96 4 9 4 C9 3.01 9 2.02 9 1 C9.66 1 10.32 1 11 1 C10.67 2.65 10.34 4.3 10 6 C10.66 5.34 11.32 4.68 12 4 C12.33 4 12.66 4 13 4 C12.50769231 10.4 12.50769231 10.4 9.9375 13.4375 C9.298125 13.953125 8.65875 14.46875 8 15 C5.37098712 13.47793991 3.15634036 12.15634036 1 10 C1.33 9.01 1.66 8.02 2 7 C2.99 7.33 3.98 7.66 5 8 C3.7625 6.8553125 3.7625 6.8553125 2.5 5.6875 C0 3 0 3 0 0 Z " fill="#8E593A" transform="translate(22,85)"/>
<path d="M0 0 C2.64 0.99 5.28 1.98 8 3 C8.58103172 9.53660686 6.80038105 15.09262683 4 21 C3.34 21.33 2.68 21.66 2 22 C1.34 20.02 0.68 18.04 0 16 C0.99 16 1.98 16 3 16 C2.01 10.72 1.02 5.44 0 0 Z " fill="#F1CB1C" transform="translate(81,111)"/>
<path d="M0 0 C0.66 0.33 1.32 0.66 2 1 C-8.45236802 8.74320645 -8.45236802 8.74320645 -13.625 11.875 C-17.01810471 13.60403248 -17.01810471 13.60403248 -18 16 C-16.68 16.33 -15.36 16.66 -14 17 C-14.66 17.66 -15.32 18.32 -16 19 C-16.70710678 20.64991582 -17.37943989 22.31562256 -18 24 C-18.33 23.01 -18.66 22.02 -19 21 C-19.33 20.67 -19.66 20.34 -20 20 C-21.32 21.65 -22.64 23.3 -24 25 C-23.49287967 21.28111761 -22.88391785 18.26545761 -21 15 C-20.34 15 -19.68 15 -19 15 C-19.33 14.01 -19.66 13.02 -20 12 C-15.67460062 9.32020369 -11.3402204 6.65572927 -7 4 C-6.22398438 3.51917969 -5.44796875 3.03835937 -4.6484375 2.54296875 C-3.13536913 1.63190843 -1.57267171 0.80380999 0 0 Z " fill="#E8CD6D" transform="translate(129,116)"/>
<path d="M0 0 C5.44340517 1.52311496 9.89119069 4.10317816 14.6875 7 C15.82541992 7.67675781 15.82541992 7.67675781 16.98632812 8.3671875 C20.03777217 10.1878196 23.04257051 12.02838034 26 14 C25.01 14 24.02 14 23 14 C23 15.98 23 17.96 23 20 C22.01 19.34 21.02 18.68 20 18 C20 19.65 20 21.3 20 23 C16.75267068 21.37633534 16.29844864 18.24612161 15 15 C16.32 15 17.64 15 19 15 C15.53880794 11.17306342 11.55257051 8.58192393 7.25 5.8125 C4.81038837 4.23644775 2.39918207 2.63824746 0 1 C0 0.67 0 0.34 0 0 Z " fill="#F5D340" transform="translate(52,117)"/>
<path d="M0 0 C0.98120464 3.05263664 0.98120464 4.94736336 0 8 C1.65 8.33 3.3 8.66 5 9 C5 9.66 5 10.32 5 11 C2.36 10.67 -0.28 10.34 -3 10 C-2.01 11.485 -2.01 11.485 -1 13 C-3.75 13.25 -3.75 13.25 -7 13 C-9.375 11 -9.375 11 -11 9 C-10.34 9 -9.68 9 -9 9 C-8.9175 8.401875 -8.835 7.80375 -8.75 7.1875 C-7.79544128 4.4033704 -6.42867729 3.56688858 -4 2 C-4 3.65 -4 5.3 -4 7 C-3.71125 6.21625 -3.4225 5.4325 -3.125 4.625 C-2 2 -2 2 0 0 Z " fill="#986547" transform="translate(115,132)"/>
<path d="M0 0 C1.85772162 0.08984301 3.71247985 0.24611861 5.5625 0.4375 C7.08037109 0.59025391 7.08037109 0.59025391 8.62890625 0.74609375 C9.80259766 0.87177734 9.80259766 0.87177734 11 1 C10.745504 2.48206495 10.47088238 3.96068615 10.1875 5.4375 C10.03667969 6.26121094 9.88585938 7.08492187 9.73046875 7.93359375 C9.48941406 8.61550781 9.24835937 9.29742187 9 10 C5.44712603 11.18429132 3.58589143 10.99184231 0 10 C-1.375 7.9375 -1.375 7.9375 -2 6 C-1.34 6 -0.68 6 0 6 C-0.2784375 4.7934375 -0.2784375 4.7934375 -0.5625 3.5625 C-0.706875 2.716875 -0.85125 1.87125 -1 1 C-0.67 0.67 -0.34 0.34 0 0 Z " fill="#BB9C88" transform="translate(51,22)"/>
<path d="M0 0 C0.33 0 0.66 0 1 0 C1 2.64 1 5.28 1 8 C3.31 8 5.62 8 8 8 C7.505 8.433125 7.01 8.86625 6.5 9.3125 C4.66781808 10.99740483 4.66781808 10.99740483 5 14 C1.5647952 16.29013653 0.014669 16.17842973 -4 16 C-5.4783226 13.04335481 -5.06032783 10.25770263 -5 7 C-4.01 7.33 -3.02 7.66 -2 8 C-1.34 5.36 -0.68 2.72 0 0 Z " fill="#925E3D" transform="translate(39,33)"/>
<path d="M0 0 C0.33 0 0.66 0 1 0 C1.10957031 0.88042969 1.21914062 1.76085937 1.33203125 2.66796875 C1.49058594 3.82941406 1.64914063 4.99085937 1.8125 6.1875 C1.96332031 7.33605469 2.11414063 8.48460938 2.26953125 9.66796875 C3.00693352 13.03162721 4.14513437 15.13893328 6 18 C6 18.66 6 19.32 6 20 C0.72 20 -4.56 20 -10 20 C-9.01 18.02 -8.02 16.04 -7 14 C-6.67 14.99 -6.34 15.98 -6 17 C-4.35 17 -2.7 17 -1 17 C-0.67 11.39 -0.34 5.78 0 0 Z " fill="#467031" transform="translate(93,114)"/>
<path d="M0 0 C0.66 0.33 1.32 0.66 2 1 C1.41992188 1.54527344 0.83984375 2.09054688 0.2421875 2.65234375 C-4.9903568 7.70356225 -9.24475783 12.77071593 -13 19 C-14.65 18.67 -16.3 18.34 -18 18 C-17.67 16.35 -17.34 14.7 -17 13 C-16.42121094 12.91363281 -15.84242187 12.82726562 -15.24609375 12.73828125 C-12.37907574 11.7959049 -11.11736813 10.38071569 -9.0625 8.1875 C-6.19344644 5.20046667 -3.3224218 2.49181635 0 0 Z " fill="#F7D342" transform="translate(118,113)"/>
<path d="M0 0 C1.485 0.99 1.485 0.99 3 2 C3 1.34 3 0.68 3 0 C5.64 0 8.28 0 11 0 C9.625 1.5 9.625 1.5 8 3 C7.34 3 6.68 3 6 3 C6 3.66 6 4.32 6 5 C7.65 4.67 9.3 4.34 11 4 C9.32482761 7.53647504 8.50719183 8.7911563 4.8125 10.3125 C3.4203125 10.6528125 3.4203125 10.6528125 2 11 C-0.32590854 7.36576791 -0.16265833 4.22911669 0 0 Z " fill="#9B6B4F" transform="translate(146,96)"/>
<path d="M0 0 C0.99 0 1.98 0 3 0 C3 0.66 3 1.32 3 2 C4.98 1.67 6.96 1.34 9 1 C9 2.32 9 3.64 9 5 C9.99 4.34 10.98 3.68 12 3 C12.3125 5.8125 12.3125 5.8125 12 9 C9.5 10.875 9.5 10.875 7 12 C4.95880212 10.38405168 2.95927063 8.7143618 1 7 C1 6.34 1 5.68 1 5 C2.65 5.33 4.3 5.66 6 6 C5.01 5.195625 4.02 4.39125 3 3.5625 C2.01 2.716875 1.02 1.87125 0 1 C0 0.67 0 0.34 0 0 Z " fill="#956143" transform="translate(146,62)"/>
<path d="M0 0 C0.66 0.33 1.32 0.66 2 1 C3.38491045 7.17883125 2.90779748 10.41702884 0 16 C-5.53846154 16.36923077 -5.53846154 16.36923077 -7.875 14.5 C-8.24625 14.005 -8.6175 13.51 -9 13 C-7.13433512 16.62793998 -7.13433512 16.62793998 -4 19 C-4.33 19.66 -4.66 20.32 -5 21 C-7.5 20.0625 -7.5 20.0625 -10 18 C-10.45787911 14.96183742 -10.28780586 12.05074215 -10 9 C-6.535 10.98 -6.535 10.98 -3 13 C-2.01 12.34 -1.02 11.68 0 11 C0.25030977 8.41619823 0.25030977 8.41619823 0 6 C-0.99 6.66 -1.98 7.32 -3 8 C-2.690625 7.236875 -2.38125 6.47375 -2.0625 5.6875 C-1.32106407 3.81210323 -0.63771783 1.91315348 0 0 Z " fill="#CEB8A9" transform="translate(157,60)"/>
<path d="M0 0 C-2.06350399 4.01840251 -3.83361468 6.15903905 -8 8 C-11.3125 8.1875 -11.3125 8.1875 -14 8 C-13.6858889 5.06829636 -12.9610478 3.95750669 -10.9375 1.75 C-6.97597894 -0.6100551 -4.55355001 -0.30871526 0 0 Z " fill="#49754C" transform="translate(121,56)"/>
<path d="M0 0 C4.91878297 -0.28934017 8.15800309 -0.27699736 12 3 C12.8125 5.6875 12.8125 5.6875 13 8 C8.56356484 8.43494462 6.67136622 8.54001196 3.125 5.6875 C1 3 1 3 0 0 Z " fill="#47734A" transform="translate(61,56)"/>
<path d="M0 0 C0.33 0 0.66 0 1 0 C1.27794711 2.37463508 1.52273673 4.7454199 1.75 7.125 C1.83121094 7.79015625 1.91242187 8.4553125 1.99609375 9.140625 C2.47692449 14.59004008 1.28600265 16.91160136 -2 21 C-2.33 20.01 -2.66 19.02 -3 18 C-2.34 17.34 -1.68 16.68 -1 16 C-0.3574765 13.93125966 -0.3574765 13.93125966 0 12 C-0.66 12 -1.32 12 -2 12 C-2 12.99 -2 13.98 -2 15 C-7.47112462 15.36474164 -7.47112462 15.36474164 -9.8125 13.75 C-11.11258722 11.83408198 -11.60856977 10.27029534 -12 8 C-10 8 -10 8 -7.875 10 C-7.25625 10.66 -6.6375 11.32 -6 12 C-3.9837767 11.28436734 -3.9837767 11.28436734 -2 10 C-1.19471111 7.94999129 -1.19471111 7.94999129 -1 6 C-2.98 6.99 -2.98 6.99 -5 8 C-4 5 -4 5 -1 3 C-0.67 2.01 -0.34 1.02 0 0 Z " fill="#CAB3A2" transform="translate(33,74)"/>
<path d="M0 0 C-1.34532377 4.40287778 -3.09430413 6.54758631 -7 9 C-9.8125 9.25 -9.8125 9.25 -12 9 C-11.875 6.75 -11.875 6.75 -11 4 C-7.34972742 0.93045261 -4.80536311 -0.56533684 0 0 Z " fill="#4E7750" transform="translate(115,45)"/>
<path d="M0 0 C1.44010481 0.25662245 2.8770687 0.53090821 4.3125 0.8125 C5.11300781 0.96332031 5.91351563 1.11414062 6.73828125 1.26953125 C9.30934734 2.09991011 10.4242399 2.81229422 12 5 C12 6.32 12 7.64 12 9 C5.90140505 8.76083941 5.90140505 8.76083941 3.421875 6.66796875 C0 2.62661638 0 2.62661638 0 0 Z " fill="#4E7750" transform="translate(66,45)"/>
<path d="M0 0 C0.78246094 -0.01417969 1.56492187 -0.02835937 2.37109375 -0.04296875 C4.5625 0.1875 4.5625 0.1875 7.5625 2.1875 C6.9025 3.5075 6.2425 4.8275 5.5625 6.1875 C0.60480204 6.47912929 -2.46556853 6.31690055 -6.4375 3.1875 C-6.4375 2.5275 -6.4375 1.8675 -6.4375 1.1875 C-4.0978331 0.01766655 -2.60358473 0.0213759 0 0 Z " fill="#457448" transform="translate(63.4375,67.8125)"/>
<path d="M0 0 C0.33 0.99 0.66 1.98 1 3 C-1.98646769 4.99097846 -4.59687262 5.94124926 -8 7 C-8 8.32 -8 9.64 -8 11 C-9.32 10.67 -10.64 10.34 -12 10 C-12 7.69 -12 5.38 -12 3 C-8.00999834 1.57499941 -4.19469571 0.59924224 0 0 Z " fill="#1B98CE" transform="translate(96,88)"/>
<path d="M0 0 C0.680625 0.00644531 1.36125 0.01289062 2.0625 0.01953125 C4 0.1875 4 0.1875 7 1.1875 C7 1.8475 7 2.5075 7 3.1875 C2.77050005 5.60435712 -0.12335991 6.53583144 -5 6.1875 C-5.66 4.8675 -6.32 3.5475 -7 2.1875 C-3.97455666 0.17053778 -3.38932618 -0.07061096 0 0 Z " fill="#48734C" transform="translate(117,67.8125)"/>
<path d="M0 0 C1.32 0.66 2.64 1.32 4 2 C3.67 3.32 3.34 4.64 3 6 C4.32 6.33 5.64 6.66 7 7 C5.25 9 5.25 9 3 11 C1.68 11 0.36 11 -1 11 C-3 8 -3 8 -2.75 6.0625 C-1.97936717 3.94325972 -1.0643413 1.98677042 0 0 Z " fill="#F9CD0B" transform="translate(79,129)"/>
<path d="M0 0 C0.66 0.33 1.32 0.66 2 1 C2.6328125 3.28515625 2.6328125 3.28515625 3.125 6.0625 C3.29257812 6.98160156 3.46015625 7.90070313 3.6328125 8.84765625 C3.75398438 9.55792969 3.87515625 10.26820312 4 11 C3.34 11 2.68 11 2 11 C1.67 11.99 1.34 12.98 1 14 C0.34 14 -0.32 14 -1 14 C-0.67 11.03 -0.34 8.06 0 5 C-1.32 6.32 -2.64 7.64 -4 9 C-6.31 8.34 -8.62 7.68 -11 7 C-11.33 5.35 -11.66 3.7 -12 2 C-8.535 3.98 -8.535 3.98 -5 6 C-2.9754262 4.06745228 -1.57894208 2.36841312 0 0 Z " fill="#D0B9AA" transform="translate(35,93)"/>
<path d="M0 0 C0 2 0 2 -1.5390625 3.65625 C-5.51569665 7.17117756 -8.68722109 9.80462474 -14 11 C-13.67 9.68 -13.34 8.36 -13 7 C-15.97 7 -18.94 7 -22 7 C-22 6.67 -22 6.34 -22 6 C-20.71416016 5.85304688 -20.71416016 5.85304688 -19.40234375 5.703125 C-13.17961684 4.88932982 -5.44254115 0 0 0 Z " fill="#54794C" transform="translate(108,103)"/>
<path d="M0 0 C2.97 0 5.94 0 9 0 C9 1.65 9 3.3 9 5 C5.38026598 6.31626692 2.90432869 7 -1 7 C-0.67 4.69 -0.34 2.38 0 0 Z " fill="#F7CC0D" transform="translate(96,136)"/>
<path d="M0 0 C-0.08378906 0.84304687 -0.16757813 1.68609375 -0.25390625 2.5546875 C-0.35574219 3.65039062 -0.45757812 4.74609375 -0.5625 5.875 C-0.66691406 6.96554688 -0.77132812 8.05609375 -0.87890625 9.1796875 C-1.22639404 11.95152023 -1.22639404 11.95152023 0 14 C-0.99 14.33 -1.98 14.66 -3 15 C-3.33 13.35 -3.66 11.7 -4 10 C-4.66 10 -5.32 10 -6 10 C-6 7.36 -6 4.72 -6 2 C-2.25 0 -2.25 0 0 0 Z " fill="#F2D43F" transform="translate(100,112)"/>
<path d="M0 0 C0.35475877 3.81365679 0.2619932 5.58442458 -1.8125 8.875 C-4 11 -4 11 -7 11 C-7.3125 8.3125 -7.3125 8.3125 -7 5 C-2.86956522 0 -2.86956522 0 0 0 Z " fill="#396B3E" transform="translate(104,36)"/>
<path d="M0 0 C2.91517292 1.07401108 4.77810176 1.77810176 7 4 C7.125 7.625 7.125 7.625 7 11 C4.37565253 10.63802104 3.17986311 10.17343943 1.25 8.3125 C-0.32663401 5.39572708 -0.22275681 3.26709987 0 0 Z " fill="#406F43" transform="translate(77,36)"/>
<path d="M0 0 C2 3 2 3 1.8125 6.0625 C1 9 1 9 -2 11 C-6.16943993 10.06400328 -7.58410733 9.62383901 -10 6 C-7.69 6 -5.38 6 -3 6 C-2.01 4.02 -1.02 2.04 0 0 Z " fill="#956241" transform="translate(150,44)"/>
<path d="M0 0 C3 0.125 3 0.125 4 1.125 C4.04063832 2.79117115 4.042721 4.45888095 4 6.125 C-1.75 7.25 -1.75 7.25 -4 6.125 C-4.042721 4.45888095 -4.04063832 2.79117115 -4 1.125 C-3 0.125 -3 0.125 0 0 Z " fill="#FBF6E4" transform="translate(91,137.875)"/>
<path d="M0 0 C0.66 0 1.32 0 2 0 C4.12508244 3.18762365 4.5020163 5.26512223 5 9 C1.32653229 11.44897847 -0.66356399 11.31537716 -5 11 C-5.66 10.34 -6.32 9.68 -7 9 C-4.69 8.34 -2.38 7.68 0 7 C0 4.69 0 2.38 0 0 Z " fill="#905B3A" transform="translate(60,129)"/>
<path d="M0 0 C2.0625 2.3125 2.0625 2.3125 4 5 C3.67 5.99 3.34 6.98 3 8 C2.34 7.01 1.68 6.02 1 5 C0.91113816 8.19902639 1.08941469 10.92677456 2 14 C1.01 13.01 0.02 12.02 -1 11 C-1 13.64 -1 16.28 -1 19 C-3.125 16.875 -3.125 16.875 -5 14 C-4.4375 11.1875 -4.4375 11.1875 -3 8 C-2.45001727 6.54478253 -1.90850471 5.08633898 -1.375 3.625 C-0.694375 1.830625 -0.694375 1.830625 0 0 Z " fill="#CFB8A9" transform="translate(146,93)"/>
<path d="M0 0 C0.33 0 0.66 0 1 0 C1.33 2.31 1.66 4.62 2 7 C4.31 7.33 6.62 7.66 9 8 C7 10 7 10 3.5625 10.25 C0 10 0 10 -3 8 C-1.125 1.125 -1.125 1.125 0 0 Z " fill="#925F3E" transform="translate(120,130)"/>
<path d="M0 0 C1.5 1.3125 1.5 1.3125 3 3 C3 3.99 3 4.98 3 6 C6.465 5.505 6.465 5.505 10 5 C9.67 5.99 9.34 6.98 9 8 C5.4375 9.1875 5.4375 9.1875 2 10 C-0.05619793 7.68677733 -0.95899829 6.44076838 -1.25 3.3125 C-1 1 -1 1 0 0 Z " fill="#8C5636" transform="translate(28,51)"/>
<path d="M0 0 C0.66 0.66 1.32 1.32 2 2 C1.89898555 4.85217266 1.16030963 7.40024965 0 10 C-2.3125 11.6875 -2.3125 11.6875 -5 12 C-7.8125 10.75 -7.8125 10.75 -10 9 C-10 8.34 -10 7.68 -10 7 C-7.36 7 -4.72 7 -2 7 C-1.22227595 4.66682784 -0.57584432 2.38564077 0 0 Z " fill="#A9836B" transform="translate(50,120)"/>
<path d="M0 0 C2 2 2 2 2.125 4.625 C2.08375 5.40875 2.0425 6.1925 2 7 C4.31 7 6.62 7 9 7 C9 7.66 9 8.32 9 9 C6.36 9.99 3.72 10.98 1 12 C-0.79760213 8.18009548 -1.28743526 5.21571713 -1 1 C-0.67 0.67 -0.34 0.34 0 0 Z " fill="#996746" transform="translate(31,44)"/>
<path d="M0 0 C0.99 0.33 1.98 0.66 3 1 C2.649375 1.598125 2.29875 2.19625 1.9375 2.8125 C0.66695302 5.10813214 0.66695302 5.10813214 2 8 C3.98 8 5.96 8 8 8 C7.67 8.66 7.34 9.32 7 10 C4.03 10 1.06 10 -2 10 C-2.25 3.375 -2.25 3.375 0 0 Z " fill="#8E5839" transform="translate(49,24)"/>
<path d="M0 0 C0.91058531 3.07322544 1.08886184 5.80097361 1 9 C3.31 9 5.62 9 8 9 C6 11 6 11 2.5 11.1875 C-1 11 -1 11 -3 10 C-3.36923077 4.58461538 -3.36923077 4.58461538 -1.5 1.625 C-1.005 1.08875 -0.51 0.5525 0 0 Z " fill="#905938" transform="translate(126,125)"/>
<path d="M0 0 C0.33 0.66 0.66 1.32 1 2 C0.28735352 3.69580078 0.28735352 3.69580078 -0.87109375 5.6953125 C-1.28037109 6.41074219 -1.68964844 7.12617187 -2.11132812 7.86328125 C-2.54896484 8.60964844 -2.98660156 9.35601562 -3.4375 10.125 C-3.87126953 10.87910156 -4.30503906 11.63320312 -4.75195312 12.41015625 C-5.82748966 14.27757134 -6.91284139 16.13932697 -8 18 C-8.99 17.67 -9.98 17.34 -11 17 C-9.52869627 12.6426774 -7.16919385 9.28065866 -4.375 5.6875 C-3.95476562 5.13771484 -3.53453125 4.58792969 -3.1015625 4.02148438 C-2.07279961 2.67707832 -1.0370991 1.33798587 0 0 Z " fill="#F4D95E" transform="translate(111,107)"/>
<path d="M0 0 C0.33 0 0.66 0 1 0 C1.21931821 3.21666704 1.26828383 5.43362303 -0.125 8.375 C-2 10 -2 10 -5 10.5 C-8 10 -8 10 -9.875 8.125 C-11 6 -11 6 -11 4 C-10.01 4.33 -9.02 4.66 -8 5 C-8 5.66 -8 6.32 -8 7 C-6.02 7 -4.04 7 -2 7 C-1.855625 6.401875 -1.71125 5.80375 -1.5625 5.1875 C-1.1127561 3.43849596 -0.57107659 1.71322977 0 0 Z " fill="#8D5938" transform="translate(159,69)"/>
<path d="M0 0 C0.66 0.66 1.32 1.32 2 2 C1.9765625 4.3828125 1.9765625 4.3828125 1.625 7.125 C1.45871094 8.49011719 1.45871094 8.49011719 1.2890625 9.8828125 C1.14597656 10.93082031 1.14597656 10.93082031 1 12 C-6.75 10.375 -6.75 10.375 -9 7 C-6.03 7 -3.06 7 0 7 C0 4.69 0 2.38 0 0 Z " fill="#8D5939" transform="translate(146,38)"/>
<path d="M0 0 C0.66 0 1.32 0 2 0 C1.67 2.97 1.34 5.94 1 9 C3.64 9 6.28 9 9 9 C8.67 9.99 8.34 10.98 8 12 C1.6217765 12.36103152 1.6217765 12.36103152 -0.9375 10.875 C-2.48724515 8.14015561 -2.32162076 6.0875593 -2 3 C-1.34 2.01 -0.68 1.02 0 0 Z " fill="#C1A691" transform="translate(46,25)"/>
<path d="M0 0 C6.93 3.96 6.93 3.96 14 8 C14 8.99 14 9.98 14 11 C9.15854118 11 6.94557115 9.32989474 3.625 6.0625 C0 2.32209738 0 2.32209738 0 0 Z " fill="#416B38" transform="translate(74,102)"/>
<path d="M0 0 C0.66 0 1.32 0 2 0 C3.52150158 3.04300316 3.23899393 5.654085 3 9 C2.01 9.66 1.02 10.32 0 11 C-2 9 -2 9 -2.25 6.0625 C-2 3 -2 3 0 0 Z " fill="#527A54" transform="translate(90,30)"/>
<path d="M0 0 C0.66 0 1.32 0 2 0 C4.4294516 3.6441774 4.16179575 5.71241272 4 10 C1.03 10 -1.94 10 -5 10 C-5.33 9.34 -5.66 8.68 -6 8 C-4.35 8 -2.7 8 -1 8 C-0.02391783 5.07175348 0.08226668 3.04386724 0 0 Z " fill="#8F5736" transform="translate(131,24)"/>
<path d="M0 0 C4.86111111 4.25347222 4.86111111 4.25347222 5.5 7.6875 C5 10 5 10 2 12 C-1.1875 12.125 -1.1875 12.125 -4 12 C-4 11.34 -4 10.68 -4 10 C-2.35 9.67 -0.7 9.34 1 9 C0.67 6.03 0.34 3.06 0 0 Z " fill="#905837" transform="translate(65,131)"/>
<path d="M0 0 C0.99 0 1.98 0 3 0 C4.62950412 4.12168689 5.26264601 6.70700357 4 11 C2.35 11 0.7 11 -1 11 C-1 11.66 -1 12.32 -1 13 C-2.32 12.67 -3.64 12.34 -5 12 C-5 11.34 -5 10.68 -5 10 C-4.030625 9.690625 -3.06125 9.38125 -2.0625 9.0625 C0.84065792 8.30476658 0.84065792 8.30476658 2 7 C1.34 4.69 0.68 2.38 0 0 Z " fill="#C9B1A0" transform="translate(62,130)"/>
<path d="M0 0 C1.485 0.99 1.485 0.99 3 2 C3 2.66 3 3.32 3 4 C4.98 4 6.96 4 9 4 C9 3.01 9 2.02 9 1 C9.66 1 10.32 1 11 1 C10.25 5.75 10.25 5.75 8 8 C4.81215405 7.83652072 3.42560094 7.44027683 1.1875 5.125 C0 3 0 3 0 0 Z " fill="#8A522F" transform="translate(22,85)"/>
<path d="M0 0 C0.33 0 0.66 0 1 0 C1.25 7.625 1.25 7.625 -1 11 C-4.37462715 10.45276317 -6.08235 9.9451 -9 8 C-9 7.34 -9 6.68 -9 6 C-6.36 6.33 -3.72 6.66 -1 7 C-0.67 4.69 -0.34 2.38 0 0 Z " fill="#925E3E" transform="translate(153,50)"/>
<path d="M0 0 C0.99 0.66 1.98 1.32 3 2 C2.67 4.31 2.34 6.62 2 9 C-0.97 9 -3.94 9 -7 9 C-7.33 8.34 -7.66 7.68 -8 7 C-6.02 7 -4.04 7 -2 7 C-2 6.34 -2 5.68 -2 5 C-1.34 5 -0.68 5 0 5 C0 3.35 0 1.7 0 0 Z " fill="#915A39" transform="translate(137,29)"/>
<path d="M0 0 C0.99 0.33 1.98 0.66 3 1 C1.515 4.465 1.515 4.465 0 8 C3.96 8.99 3.96 8.99 8 10 C8 10.66 8 11.32 8 12 C6.35 12.33 4.7 12.66 3 13 C2.67 12.34 2.34 11.68 2 11 C-0.02463255 10.34786708 -0.02463255 10.34786708 -2 10 C-1.85950482 8.52031676 -1.71245174 7.04125484 -1.5625 5.5625 C-1.48128906 4.73878906 -1.40007812 3.91507813 -1.31640625 3.06640625 C-1 1 -1 1 0 0 Z " fill="#C8AF9D" transform="translate(117,130)"/>
<path d="M0 0 C0.53625 0.825 1.0725 1.65 1.625 2.5 C3.80271869 5.33951208 3.80271869 5.33951208 7.25 5.3125 C8.1575 5.209375 9.065 5.10625 10 5 C9.67 5.99 9.34 6.98 9 8 C5.625 8.625 5.625 8.625 2 9 C0 7 0 7 -0.125 3.375 C-0.08375 2.26125 -0.0425 1.1475 0 0 Z " fill="#905836" transform="translate(144,102)"/>
<path d="M0 0 C2.35953094 2.35953094 2.49141413 3.77895617 3 7 C4.98 7 6.96 7 9 7 C9 7.66 9 8.32 9 9 C6.04335481 10.4783226 3.25770263 10.06032783 0 10 C-1.125 3.375 -1.125 3.375 0 0 Z " fill="#8E5532" transform="translate(138,112)"/>
<path d="M0 0 C0.66 0.33 1.32 0.66 2 1 C1.34 3.97 0.68 6.94 0 10 C-2.97 10 -5.94 10 -9 10 C-9.66 8.35 -10.32 6.7 -11 5 C-8.36 5.66 -5.72 6.32 -3 7 C-2.01 4.69 -1.02 2.38 0 0 Z " fill="#CAB3A4" transform="translate(152,47)"/>
<path d="M0 0 C0.66 0.33 1.32 0.66 2 1 C1.34 3.64 0.68 6.28 0 9 C2.64 9.33 5.28 9.66 8 10 C7.67 10.99 7.34 11.98 7 13 C4.36 12.34 1.72 11.68 -1 11 C-2.67357513 5.62694301 -2.67357513 5.62694301 -3 3 C-1.625 1 -1.625 1 0 0 Z " fill="#CCB3A2" transform="translate(123,126)"/>
<path d="M0 0 C1.98 0.495 1.98 0.495 4 1 C3 4 2 7 1 10 C1.33 10.99 1.66 11.98 2 13 C4.01508358 13.73323796 4.01508358 13.73323796 6 14 C4.35 14.33 2.7 14.66 1 15 C-1.32590854 11.36576791 -1.16265833 8.22911669 -1 4 C-0.34 3.67 0.32 3.34 1 3 C0.67 2.01 0.34 1.02 0 0 Z " fill="#F7CE1D" transform="translate(76,127)"/>
<path d="M0 0 C0.763125 0.474375 1.52625 0.94875 2.3125 1.4375 C4.96410548 3.10106097 4.96410548 3.10106097 8 4 C10.16715557 3.12516085 10.16715557 3.12516085 12 2 C11.67 3.32 11.34 4.64 11 6 C7.7 6.33 4.4 6.66 1 7 C0.67 4.69 0.34 2.38 0 0 Z " fill="#9D7057" transform="translate(147,90)"/>
<path d="M0 0 C1.32 0.33 2.64 0.66 4 1 C4 3.64 4 6.28 4 9 C2.54494642 9.52992692 1.08581873 10.0486789 -0.375 10.5625 C-1.59316406 10.99755859 -1.59316406 10.99755859 -2.8359375 11.44140625 C-5 12 -5 12 -7 11 C-7 10.34 -7 9.68 -7 9 C-2.545 8.505 -2.545 8.505 2 8 C1.34 5.36 0.68 2.72 0 0 Z " fill="#D0B9AA" transform="translate(57,127)"/>
<path d="M0 0 C1.4540625 0.0309375 1.4540625 0.0309375 2.9375 0.0625 C2.6075 1.7125 2.2775 3.3625 1.9375 5.0625 C0.2875 5.3925 -1.3625 5.7225 -3.0625 6.0625 C-3.44468767 4.40635343 -3.77645102 2.73792976 -4.0625 1.0625 C-3.0625 0.0625 -3.0625 0.0625 0 0 Z " fill="#F4D636" transform="translate(104.0625,125.9375)"/>
<path d="M0 0 C1.31223496 3.93670488 0.24296256 6.12488144 -1 10 C0.65 10 2.3 10 4 10 C4 10.33 4 10.66 4 11 C1.25 11.25 1.25 11.25 -2 11 C-4.375 9 -4.375 9 -6 7 C-5.34 7 -4.68 7 -4 7 C-3.896875 6.401875 -3.79375 5.80375 -3.6875 5.1875 C-2.91123545 2.71756736 -1.92911079 1.67748765 0 0 Z " fill="#8E5630" transform="translate(110,134)"/>
<path d="M0 0 C0.33 0 0.66 0 1 0 C1 1.98 1 3.96 1 6 C3.64 6 6.28 6 9 6 C8.34 7.32 7.68 8.64 7 10 C4.36 9.67 1.72 9.34 -1 9 C-1.80967438 6.08517222 -2.21845993 4.53886783 -1.0625 1.6875 C-0.711875 1.130625 -0.36125 0.57375 0 0 Z " fill="#BE9E8B" transform="translate(128,125)"/>
<path d="M0 0 C2.475 0.495 2.475 0.495 5 1 C5.125 4.375 5.125 4.375 5 8 C4.34 8.66 3.68 9.32 3 10 C0 3.375 0 3.375 0 0 Z " fill="#E2E6D6" transform="translate(84,113)"/>
<path d="M0 0 C0.66 0.66 1.32 1.32 2 2 C1.67028521 5.29714793 1.3773161 6.6226839 -1 9 C-4.125 9.125 -4.125 9.125 -7 9 C-7.33 8.01 -7.66 7.02 -8 6 C-6.35 6 -4.7 6 -3 6 C-2.01 4.02 -1.02 2.04 0 0 Z " fill="#8C5633" transform="translate(37,102)"/>
<path d="M0 0 C1.65 1.65 3.3 3.3 5 5 C4.67 5.66 4.34 6.32 4 7 C3.01 6.34 2.02 5.68 1 5 C2.19899698 8.0831351 3.47700477 11.06279492 5 14 C4.195625 13.67 3.39125 13.34 2.5625 13 C0.30318875 11.93940959 0.30318875 11.93940959 -1 12 C-0.67 8.04 -0.34 4.08 0 0 Z " fill="#CCB7A6" transform="translate(22,68)"/>
<path d="M0 0 C1.32 0.66 2.64 1.32 4 2 C4 2.99 4 3.98 4 5 C4.99 5.66 5.98 6.32 7 7 C4.36 7 1.72 7 -1 7 C-1.04254356 5.00045254 -1.04080783 2.99958364 -1 1 C-0.67 0.67 -0.34 0.34 0 0 Z " fill="#F9CD0D" transform="translate(85,72)"/>
<path d="M0 0 C1.5625 1.0625 1.5625 1.0625 3 3 C2.6875 6.6875 2.6875 6.6875 2 10 C-0.25 10.6875 -0.25 10.6875 -3 11 C-5.3125 9.5625 -5.3125 9.5625 -7 8 C-5.02 8 -3.04 8 -1 8 C-0.67 5.36 -0.34 2.72 0 0 Z " fill="#C0A290" transform="translate(144,35)"/>
<path d="M0 0 C-0.9520721 1.00596297 -1.91187346 2.00461563 -2.875 3 C-3.40867187 3.556875 -3.94234375 4.11375 -4.4921875 4.6875 C-6 6 -6 6 -8 6 C-8.33 6.66 -8.66 7.32 -9 8 C-11.97 7.505 -11.97 7.505 -15 7 C-15 6.67 -15 6.34 -15 6 C-12.03 5.01 -9.06 4.02 -6 3 C-7.65 2.67 -9.3 2.34 -11 2 C-11 1.67 -11 1.34 -11 1 C-9.5437328 0.63743142 -8.08488815 0.28520207 -6.625 -0.0625 C-5.81289063 -0.25972656 -5.00078125 -0.45695312 -4.1640625 -0.66015625 C-2 -1 -2 -1 0 0 Z " fill="#E0D4CB" transform="translate(54,38)"/>
<path d="M0 0 C0.33 0.66 0.66 1.32 1 2 C2.64363134 2.72159424 4.31050386 3.39351421 6 4 C6 4.99 6 5.98 6 7 C4.02 7.33 2.04 7.66 0 8 C0 5.36 0 2.72 0 0 Z " fill="#C3DBD4" transform="translate(98,60)"/>
<path d="M0 0 C0.89130413 2.6739124 1.47731534 5.23723823 2 8 C3.65 7.67 5.3 7.34 7 7 C7.33 7.66 7.66 8.32 8 9 C1.25 10.125 1.25 10.125 -1 9 C-1.09765625 2.84765625 -1.09765625 2.84765625 -1 1 C-0.67 0.67 -0.34 0.34 0 0 Z " fill="#8B4F2B" transform="translate(130,122)"/>
<path d="M0 0 C0.66 0 1.32 0 2 0 C2 1.65 2 3.3 2 5 C4.63904371 6.41377341 7.07120629 7.37240135 10 8 C9 9 9 9 6.93359375 9.09765625 C3.46679688 9.04882812 3.46679688 9.04882812 0 9 C0 6.03 0 3.06 0 0 Z " fill="#8C502F" transform="translate(43,29)"/>
<path d="M0 0 C0.33 1.65 0.66 3.3 1 5 C0.01 4.34 -0.98 3.68 -2 3 C-2 4.65 -2 6.3 -2 8 C-5.24732932 6.37633534 -5.70155136 3.24612161 -7 0 C-3.98968256 -0.93423645 -3.13349732 -1.04449911 0 0 Z " fill="#DCC9A0" transform="translate(74,132)"/>
<path d="M0 0 C0.99 0 1.98 0 3 0 C1.60667426 3.36720387 0.0210714 4.9859524 -3 7 C-4.32 6.34 -5.64 5.68 -7 5 C-7 4.34 -7 3.68 -7 3 C-4.69 3 -2.38 3 0 3 C0 2.01 0 1.02 0 0 Z " fill="#905B3C" transform="translate(32,67)"/>
<path d="M0 0 C0.7425 0.804375 1.485 1.60875 2.25 2.4375 C4.75304829 4.76988591 5.7180955 5.63534394 9 6 C9 6.66 9 7.32 9 8 C6.36 8.33 3.72 8.66 1 9 C-0.4783226 6.04335481 -0.06032783 3.25770263 0 0 Z " fill="#9D7157" transform="translate(23,62)"/>
<path d="M0 0 C0.33 0 0.66 0 1 0 C1 2.97 1 5.94 1 9 C-3.455 9.495 -3.455 9.495 -8 10 C-8 9.34 -8 8.68 -8 8 C-7.01 8 -6.02 8 -5 8 C-5 7.34 -5 6.68 -5 6 C-3.35 6 -1.7 6 0 6 C0 4.02 0 2.04 0 0 Z " fill="#EBCB26" transform="translate(97,59)"/>
<path d="M0 0 C0.66 0.33 1.32 0.66 2 1 C2 3.64 2 6.28 2 9 C0.02 9.33 -1.96 9.66 -4 10 C-4.33 9.34 -4.66 8.68 -5 8 C-3.68 8 -2.36 8 -1 8 C-0.67 5.36 -0.34 2.72 0 0 Z " fill="#894F2C" transform="translate(51,122)"/>
<path d="M0 0 C0.66 0 1.32 0 2 0 C3.76171875 2.30078125 3.76171875 2.30078125 5.6875 5.3125 C6.33074219 6.29863281 6.97398438 7.28476563 7.63671875 8.30078125 C8.08660156 9.19152344 8.53648438 10.08226563 9 11 C8.67 11.99 8.34 12.98 8 14 C0 3.89473684 0 3.89473684 0 0 Z " fill="#F3DD7C" transform="translate(67,103)"/>
<path d="M0 0 C0.75 1.75 0.75 1.75 1 4 C-0.9375 6.25 -0.9375 6.25 -3 8 C-4.32 7.34 -5.64 6.68 -7 6 C-7 5.34 -7 4.68 -7 4 C-5.824375 3.8453125 -5.824375 3.8453125 -4.625 3.6875 C-1.66954819 3.22404978 -1.66954819 3.22404978 0 0 Z " fill="#8D5531" transform="translate(32,79)"/>
<path d="M0 0 C0.33 0.66 0.66 1.32 1 2 C-0.4375 4.625 -0.4375 4.625 -2 7 C-2.33 6.34 -2.66 5.68 -3 5 C-5.52733235 4.34444881 -5.52733235 4.34444881 -8 4 C-7.67 3.34 -7.34 2.68 -7 2 C-5.00714063 1.62633887 -3.00636471 1.29259485 -1 1 C-0.67 0.67 -0.34 0.34 0 0 Z " fill="#9E7157" transform="translate(33,72)"/>
<path d="M0 0 C0.66 0 1.32 0 2 0 C2 0.66 2 1.32 2 2 C2.66 2 3.32 2 4 2 C4 1.34 4 0.68 4 0 C5.32 0 6.64 0 8 0 C7 3 7 3 5 4 C3.00039988 4.039992 0.99952758 4.04346799 -1 4 C-0.67 2.68 -0.34 1.36 0 0 Z " fill="#8D5735" transform="translate(143,113)"/>
<path d="M0 0 C0.33 0 0.66 0 1 0 C0.67 2.31 0.34 4.62 0 7 C-2.64 7 -5.28 7 -8 7 C-7 5 -7 5 -4.5625 4.0625 C-1.70136041 3.15452711 -1.70136041 3.15452711 0 0 Z " fill="#9D6F53" transform="translate(34,89)"/>
<path d="M0 0 C-5.625 5 -5.625 5 -9 5 C-7.93411431 2.09303901 -7.29651501 1.15567038 -4.5 -0.3125 C-2 -1 -2 -1 0 0 Z " fill="#94674B" transform="translate(62,24)"/>
<path d="M0 0 C4.8274799 1.41292095 8.7162359 3.42974154 13 6 C12.01 6.66 11.02 7.32 10 8 C8.33055479 6.85821872 6.6645052 5.71147095 5 4.5625 C4.071875 3.92441406 3.14375 3.28632812 2.1875 2.62890625 C1.465625 2.09136719 0.74375 1.55382812 0 1 C0 0.67 0 0.34 0 0 Z " fill="#F3DE7B" transform="translate(52,117)"/>
<path d="M0 0 C2 2 2 2 2.125 4.625 C2.08375 5.40875 2.0425 6.1925 2 7 C-0.31 7.33 -2.62 7.66 -5 8 C-4.0409375 7.690625 -4.0409375 7.690625 -3.0625 7.375 C-0.65074923 6.10461791 -0.65074923 6.10461791 -0.25 2.875 C-0.1675 1.92625 -0.085 0.9775 0 0 Z " fill="#966747" transform="translate(43,112)"/>
<path d="M0 0 C0.33 0 0.66 0 1 0 C1.125 6.75 1.125 6.75 0 9 C-1.98 9 -3.96 9 -6 9 C-5.01 8.67 -4.02 8.34 -3 8 C-3 7.34 -3 6.68 -3 6 C-2.34 6 -1.68 6 -1 6 C-1.020625 5.195625 -1.04125 4.39125 -1.0625 3.5625 C-1 1 -1 1 0 0 Z " fill="#8F5433" transform="translate(40,107)"/>
<path d="M0 0 C0 0.66 0 1.32 0 2 C-1.95927063 3.7143618 -3.95880212 5.38405168 -6 7 C-6 6.34 -6 5.68 -6 5 C-7.98 5.33 -9.96 5.66 -12 6 C-3 0 -3 0 0 0 Z " fill="#688963" transform="translate(108,103)"/>
<path d="M0 0 C0.6875 1.8125 0.6875 1.8125 1 4 C-0.0625 5.75 -0.0625 5.75 -2 7 C-5.1875 7.1875 -5.1875 7.1875 -8 7 C-5.74442264 3.61663396 -4.63811468 3.39927488 -1 2 C-0.67 1.34 -0.34 0.68 0 0 Z " fill="#CEBAAB" transform="translate(156,101)"/>
<path d="M0 0 C2 2 2 2 2 6 C2.99 6.33 3.98 6.66 5 7 C4.34 8.32 3.68 9.64 3 11 C0.39665076 8.28817788 0.00543309 7.10866187 -0.1875 3.25 C-0.125625 2.1775 -0.06375 1.105 0 0 Z " fill="#8A5739" transform="translate(146,96)"/>
<path d="M0 0 C0.33 0.66 0.66 1.32 1 2 C1.66 2.33 2.32 2.66 3 3 C2 4 2 4 -1.4375 4.1875 C-5 4 -5 4 -7 2 C-4.69 1.34 -2.38 0.68 0 0 Z " fill="#986747" transform="translate(60,136)"/>
<path d="M0 0 C1.98 0.99 1.98 0.99 4 2 C4.75 5.625 4.75 5.625 5 9 C4.01 9.66 3.02 10.32 2 11 C1.34 7.37 0.68 3.74 0 0 Z " fill="#EDD24F" transform="translate(81,111)"/>
<path d="M0 0 C3.18772993 2.12515329 4.24920753 3.66515721 6 7 C6 7.66 6 8.32 6 9 C3.53199953 7.84826645 1.95216435 6.95216435 0 5 C-0.125 2.375 -0.125 2.375 0 0 Z " fill="#905E3C" transform="translate(148,84)"/>
<path d="M0 0 C0.66 0 1.32 0 2 0 C2.33 0.99 2.66 1.98 3 3 C5.01508358 3.73323796 5.01508358 3.73323796 7 4 C6.67 4.99 6.34 5.98 6 7 C3.13275314 6.42655063 2.1385485 6.1385485 0 4 C0 2.68 0 1.36 0 0 Z " fill="#8D522D" transform="translate(23,73)"/>
<path d="M0 0 C0.99 0 1.98 0 3 0 C3 0.66 3 1.32 3 2 C4.98 1.67 6.96 1.34 9 1 C8.67 2.32 8.34 3.64 8 5 C4.75791433 4.64950425 3.38472296 4.43778819 1.1875 1.9375 C0.795625 1.298125 0.40375 0.65875 0 0 Z " fill="#88522F" transform="translate(146,62)"/>
<path d="M0 0 C4.455 0.99 4.455 0.99 9 2 C6 5 6 5 2.3125 5.1875 C0.6728125 5.0946875 0.6728125 5.0946875 -1 5 C0.32 4.34 1.64 3.68 3 3 C2.01 2.01 1.02 1.02 0 0 Z " fill="#CEBDAF" transform="translate(110,141)"/>
<path d="M0 0 C-0.33 0.99 -0.66 1.98 -1 3 C-1.99 2.67 -2.98 2.34 -4 2 C-3.67 2.99 -3.34 3.98 -3 5 C-4.98 4.34 -6.96 3.68 -9 3 C-6.38997624 -0.48003168 -4.1689578 -0.27793052 0 0 Z " fill="#F6E177" transform="translate(80,125)"/>
<path d="M0 0 C3.3 0 6.6 0 10 0 C10 0.99 10 1.98 10 3 C8.72125 3.061875 7.4425 3.12375 6.125 3.1875 C5.40570313 3.22230469 4.68640625 3.25710937 3.9453125 3.29296875 C3.30335937 3.19628906 2.66140625 3.09960938 2 3 C1.34 2.01 0.68 1.02 0 0 Z " fill="#8D5233" transform="translate(34,119)"/>
<path d="M0 0 C0.99 1.32 1.98 2.64 3 4 C2.09021715 7.82108796 1.32708333 8.78194445 -2 11 C-1.34 7.37 -0.68 3.74 0 0 Z " fill="#D7C6BC" transform="translate(154,51)"/>
<path d="M0 0 C0 1.98 0 3.96 0 6 C-2.64 5.67 -5.28 5.34 -8 5 C-1.40909091 0 -1.40909091 0 0 0 Z " fill="#CEB6A7" transform="translate(60,26)"/>
<path d="M0 0 C0.66 0.33 1.32 0.66 2 1 C1.34 3.64 0.68 6.28 0 9 C-0.66 9 -1.32 9 -2 9 C-2 6.36 -2 3.72 -2 1 C-1.34 0.67 -0.68 0.34 0 0 Z " fill="#EBEACF" transform="translate(96,113)"/>
<path d="M0 0 C0.99 0.33 1.98 0.66 3 1 C0.75 3.0625 0.75 3.0625 -2 5 C-4.3125 4.75 -4.3125 4.75 -6 4 C-6 3.34 -6 2.68 -6 2 C-4.02 2 -2.04 2 0 2 C0 1.34 0 0.68 0 0 Z " fill="#8D512F" transform="translate(33,62)"/>
<path d="M0 0 C0.125 2.875 0.125 2.875 0 6 C-0.66 6.66 -1.32 7.32 -2 8 C-2 6.35 -2 4.7 -2 3 C-3.32 3.33 -4.64 3.66 -6 4 C-2.25 0 -2.25 0 0 0 Z " fill="#648668" transform="translate(104,36)"/>
<path d="M0 0 C1.6415049 3.2830098 0.51888624 6.42545033 0 10 C-1.32 8.35 -2.64 6.7 -4 5 C-2.25 1.125 -2.25 1.125 0 0 Z " fill="#CAB5A8" transform="translate(38,34)"/>
<path d="M0 0 C3.96 1.98 3.96 1.98 8 4 C8 4.33 8 4.66 8 5 C5.6739143 5.38063221 3.33944736 5.71269945 1 6 C0 5 0 5 -0.0625 2.4375 C-0.041875 1.633125 -0.02125 0.82875 0 0 Z " fill="#C8B3A0" transform="translate(122,26)"/>
<path d="M0 0 C0.93065133 2.60582371 1.14917407 3.64198224 0.0625 6.25 C-0.4634375 7.11625 -0.4634375 7.11625 -1 8 C-1.66 8 -2.32 8 -3 8 C-3.36923077 3.44615385 -3.36923077 3.44615385 -1.5 1.1875 C-1.005 0.795625 -0.51 0.40375 0 0 Z " fill="#8F5834" transform="translate(115,132)"/>
<path d="M0 0 C0.66 0.33 1.32 0.66 2 1 C-2.455 3.97 -2.455 3.97 -7 7 C-7.66 6.34 -8.32 5.68 -9 5 C-7.54735962 4.1361871 -6.0876837 3.28419546 -4.625 2.4375 C-3.40683594 1.72400391 -3.40683594 1.72400391 -2.1640625 0.99609375 C-1.44992188 0.66738281 -0.73578125 0.33867188 0 0 Z " fill="#F1E187" transform="translate(129,116)"/>
<path d="M0 0 C3.7952131 1.49097658 5.61042731 3.75700849 8 7 C7.01 7 6.02 7 5 7 C4.731875 6.360625 4.46375 5.72125 4.1875 5.0625 C3.11332248 2.66868314 3.11332248 2.66868314 0 2 C0 1.34 0 0.68 0 0 Z " fill="#F2E7AA" transform="translate(57,108)"/>
<path d="M0 0 C2.64 1.65 5.28 3.3 8 5 C7.67 5.99 7.34 6.98 7 8 C5.8274869 7.04882866 4.66212985 6.08882991 3.5 5.125 C2.8503125 4.59132813 2.200625 4.05765625 1.53125 3.5078125 C1.0259375 3.01023437 0.520625 2.51265625 0 2 C0 1.34 0 0.68 0 0 Z " fill="#597B55" transform="translate(74,102)"/>
<path d="M0 0 C0.33 0 0.66 0 1 0 C1 1.65 1 3.3 1 5 C-1.31 5.66 -3.62 6.32 -6 7 C-6 6.34 -6 5.68 -6 5 C-4.34467377 3.98133771 -2.67739862 2.98189187 -1 2 C-0.67 1.34 -0.34 0.68 0 0 Z " fill="#D1BEAF" transform="translate(158,94)"/>
<path d="M0 0 C2.64 0 5.28 0 8 0 C5.94766315 2.2477975 4.99332739 3.0022242 2 4 C1.34 2.68 0.68 1.36 0 0 Z " fill="#8B522E" transform="translate(149,96)"/>
<path d="M0 0 C1.22589844 0.01353516 1.22589844 0.01353516 2.4765625 0.02734375 C3.41628906 0.04474609 3.41628906 0.04474609 4.375 0.0625 C4.375 0.3925 4.375 0.7225 4.375 1.0625 C3.405625 1.18625 2.43625 1.31 1.4375 1.4375 C-0.0784375 1.746875 -0.0784375 1.746875 -1.625 2.0625 C-1.955 2.7225 -2.285 3.3825 -2.625 4.0625 C-3.945 3.7325 -5.265 3.4025 -6.625 3.0625 C-6.625 2.4025 -6.625 1.7425 -6.625 1.0625 C-4.21954362 -0.14022819 -2.67503047 -0.03821472 0 0 Z " fill="#567C58" transform="translate(63.625,67.9375)"/>
<path d="M0 0 C0.33 0 0.66 0 1 0 C1.36923077 7.50769231 1.36923077 7.50769231 -0.5 10 C-0.995 10.33 -1.49 10.66 -2 11 C-2 6.91621923 -1.19287411 3.87684087 0 0 Z " fill="#8C5231" transform="translate(153,50)"/>
<path d="M0 0 C0.66 0 1.32 0 2 0 C1.67 1.98 1.34 3.96 1 6 C-0.98 6 -2.96 6 -5 6 C-3.625 4.5 -3.625 4.5 -2 3 C-1.34 3 -0.68 3 0 3 C0 2.01 0 1.02 0 0 Z " fill="#864D28" transform="translate(142,37)"/>
<path d="M0 0 C1.9375 0.3125 1.9375 0.3125 4 1 C5.09658936 4.28976808 4.79953138 5.71303767 4 9 C3.34 9 2.68 9 2 9 C1.855625 7.88625 1.71125 6.7725 1.5625 5.625 C1.21627965 2.17857953 1.21627965 2.17857953 0 0 Z " fill="#CAB19E" transform="translate(133,25)"/>
<path d="M0 0 C2.9375 0.8125 2.9375 0.8125 6 2 C6.33 2.99 6.66 3.98 7 5 C4.625 4.75 4.625 4.75 2 4 C0.6875 1.9375 0.6875 1.9375 0 0 Z " fill="#8E5A3A" transform="translate(122,24)"/>
<path d="M0 0 C3.73639216 1.24546405 4.18756513 2.63404953 6 6 C5.34 6 4.68 6 4 6 C3.67 6.66 3.34 7.32 3 8 C0 2.25 0 2.25 0 0 Z " fill="#F5D641" transform="translate(75,116)"/>
<path d="M0 0 C2.97 0.99 5.94 1.98 9 3 C9 3.33 9 3.66 9 4 C6.69 4.33 4.38 4.66 2 5 C1.34 3.35 0.68 1.7 0 0 Z " fill="#D6C0B0" transform="translate(31,115)"/>
<path d="M0 0 C0.33 0.99 0.66 1.98 1 3 C-2 5 -2 5 -4.6875 4.625 C-5.450625 4.41875 -6.21375 4.2125 -7 4 C-6 2 -6 2 -2.9375 0.875 C-1.4834375 0.441875 -1.4834375 0.441875 0 0 Z " fill="#CFBAAC" transform="translate(153,109)"/>
<path d="M0 0 C2.64 0 5.28 0 8 0 C8 0.66 8 1.32 8 2 C2.25 3.125 2.25 3.125 0 2 C0 1.34 0 0.68 0 0 Z " fill="#199ACE" transform="translate(89,82)"/>
<path d="M0 0 C0 0.66 0 1.32 0 2 C-2.64 2.99 -5.28 3.98 -8 5 C-8 3.68 -8 2.36 -8 1 C-2.25 0 -2.25 0 0 0 Z " fill="#89512E" transform="translate(40,51)"/>
<path d="M0 0 C2.97 0 5.94 0 9 0 C9 0.66 9 1.32 9 2 C2.25 3.125 2.25 3.125 0 2 C0 1.34 0 0.68 0 0 Z " fill="#C8AF9F" transform="translate(126,34)"/>
<path d="M0 0 C1.5 1.375 1.5 1.375 3 3 C3 3.66 3 4.32 3 5 C4.32 5.33 5.64 5.66 7 6 C5.35 6.33 3.7 6.66 2 7 C0.5393715 4.35261084 0 3.10551666 0 0 Z " fill="#E8C333" transform="translate(75,135)"/>
<path d="M0 0 C2 1.1875 2 1.1875 4 3 C4.25 5.6875 4.25 5.6875 4 8 C3.34 8 2.68 8 2 8 C2 6.68 2 5.36 2 4 C1.34 4 0.68 4 0 4 C0 2.68 0 1.36 0 0 Z " fill="#925735" transform="translate(71,134)"/>
<path d="M0 0 C1.65 0 3.3 0 5 0 C5.33 0.99 5.66 1.98 6 3 C4.02 3.33 2.04 3.66 0 4 C0 2.68 0 1.36 0 0 Z " fill="#F6D021" transform="translate(87,135)"/>
<path d="M0 0 C2.64 0 5.28 0 8 0 C8.33 0.66 8.66 1.32 9 2 C6.36 2.33 3.72 2.66 1 3 C0.67 2.01 0.34 1.02 0 0 Z " fill="#D2B9AD" transform="translate(40,127)"/>
<path d="M0 0 C0.99 0 1.98 0 3 0 C3 1.65 3 3.3 3 5 C2.34 5 1.68 5 1 5 C0.34 5.66 -0.32 6.32 -1 7 C-0.67 4.69 -0.34 2.38 0 0 Z " fill="#50743A" transform="translate(88,121)"/>
<path d="M0 0 C0.66 0 1.32 0 2 0 C1.25 4.75 1.25 4.75 -1 7 C-1.66 6.67 -2.32 6.34 -3 6 C-1.125 1.125 -1.125 1.125 0 0 Z " fill="#F5D644" transform="translate(103,118)"/>
<path d="M0 0 C0.99 0.99 1.98 1.98 3 3 C2.34 4.98 1.68 6.96 1 9 C0.34 9 -0.32 9 -1 9 C-0.67 6.03 -0.34 3.06 0 0 Z " fill="#C7B09D" transform="translate(41,109)"/>
<path d="M0 0 C1.485 0.99 1.485 0.99 3 2 C3 2.66 3 3.32 3 4 C4.65 4 6.3 4 8 4 C7.360625 4.12375 6.72125 4.2475 6.0625 4.375 C5.0415625 4.684375 5.0415625 4.684375 4 5 C3.67 5.66 3.34 6.32 3 7 C0 3.375 0 3.375 0 0 Z " fill="#956142" transform="translate(22,85)"/>
<path d="M0 0 C0.33 0 0.66 0 1 0 C1.36923077 5.53846154 1.36923077 5.53846154 -0.5 7.875 C-1.2425 8.431875 -1.2425 8.431875 -2 9 C-2.66 8.34 -3.32 7.68 -4 7 C-3.34 7 -2.68 7 -2 7 C-1.855625 6.401875 -1.71125 5.80375 -1.5625 5.1875 C-1.1127561 3.43849596 -0.57107659 1.71322977 0 0 Z " fill="#956646" transform="translate(159,69)"/>
<path d="M0 0 C1.5 1.3125 1.5 1.3125 3 3 C3 3.99 3 4.98 3 6 C1.68 6 0.36 6 -1 6 C-1.042721 4.33388095 -1.04063832 2.66617115 -1 1 C-0.67 0.67 -0.34 0.34 0 0 Z " fill="#9B684A" transform="translate(28,51)"/>
<path d="M0 0 C3.3 0.33 6.6 0.66 10 1 C7.37561021 2.74959319 6.03452373 3.62068453 3 4 C2.01 3.34 1.02 2.68 0 2 C0 1.34 0 0.68 0 0 Z " fill="#D6C6B8" transform="translate(44,131)"/>
<path d="M0 0 C2.64 0 5.28 0 8 0 C7.67 0.99 7.34 1.98 7 3 C3.37673261 4.2077558 2.35853631 3.54311128 -1 2 C-0.67 1.34 -0.34 0.68 0 0 Z " fill="#D5C1B3" transform="translate(134,127)"/>
<path d="M0 0 C0.99 0.99 1.98 1.98 3 3 C2.34 4.98 1.68 6.96 1 9 C0.34 8.67 -0.32 8.34 -1 8 C-0.67 5.36 -0.34 2.72 0 0 Z " fill="#D0BBA9" transform="translate(45,114)"/>
<path d="M0 0 C-0.66 1.32 -1.32 2.64 -2 4 C-4.97 3.505 -4.97 3.505 -8 3 C-7.67 2.34 -7.34 1.68 -7 1 C-4.61370553 0.38812962 -2.46459429 0 0 0 Z " fill="#CEB8A8" transform="translate(150,116)"/>
<path d="M0 0 C0.66 0.33 1.32 0.66 2 1 C0.02 2.98 -1.96 4.96 -4 7 C-4.99 6.67 -5.98 6.34 -7 6 C-4.69 4.02 -2.38 2.04 0 0 Z " fill="#F5D564" transform="translate(118,113)"/>
<path d="M0 0 C3.96 1.98 3.96 1.98 8 4 C4 5 4 5 1 5 C0.67 3.35 0.34 1.7 0 0 Z " fill="#D4C2B5" transform="translate(25,102)"/>
<path d="M0 0 C2.475 0.99 2.475 0.99 5 2 C4.01 2.33 3.02 2.66 2 3 C1.26676204 5.01508358 1.26676204 5.01508358 1 7 C0 6 0 6 -0.0625 2.9375 C-0.041875 1.968125 -0.02125 0.99875 0 0 Z " fill="#69886B" transform="translate(77,36)"/>
<path d="M0 0 C3 1 3 1 3 1 Z " fill="#608B64" transform="translate(143,171)"/>
</svg>
